M48
; DRILL file {KiCad 8.0.0} date 2024-04-13T17:49:12+0900
; FORMAT={-:-/ absolute / inch / decimal}
; #@! TF.CreationDate,2024-04-13T17:49:12+09:00
; #@! TF.GenerationSoftware,Kicad,Pcbnew,8.0.0
; #@! TF.FileFunction,Plated,1,2,PTH
FMAT,2
INCH
; #@! TA.AperFunction,Plated,PTH,ViaDrill
T1C0.1102
; #@! TA.AperFunction,Plated,PTH,ViaDrill
T2C0.1260
; #@! TA.AperFunction,Plated,PTH,ViaDrill
T3C0.1575
; #@! TA.AperFunction,Plated,PTH,ViaDrill
T4C0.2362
; #@! TA.AperFunction,Plated,PTH,ViaDrill
T5C0.2559
%
G90
G05
T1
X1.4945Y-2.611
X1.4969Y-4.9146
X3.424Y-2.6079
X3.4248Y-4.915
X3.8185Y-2.1374
T2
X1.063Y-0.9055
X1.063Y-5.7283
X1.1024Y-0.9055
X1.1024Y-5.7283
X1.1417Y-0.9055
X1.1417Y-5.7283
X1.1811Y-0.9055
X1.1811Y-5.7283
X1.2244Y-0.9055
X1.2244Y-5.7283
X7.1063Y-0.9055
X7.1063Y-5.7283
X7.1457Y-0.9055
X7.1457Y-5.7283
X7.185Y-0.9055
X7.185Y-5.7283
X7.2244Y-0.9055
X7.2244Y-5.7283
X7.2677Y-0.9055
X7.2677Y-5.7283
T3
X7.2339Y-2.5516
X7.2343Y-2.2094
T4
X4.3909Y-4.813
X4.9252Y-4.813
X5.4697Y-4.813
X6.0039Y-4.813
X7.0268Y-4.8244
T5
X4.2575Y-1.624
X5.2358Y-1.624
X6.2213Y-1.624
X7.2055Y-1.624
M30
