%TF.GenerationSoftware,KiCad,Pcbnew,8.0.0*%
%TF.CreationDate,2024-04-01T16:50:34+09:00*%
%TF.ProjectId,Raverack,52617665-7261-4636-9b2e-6b696361645f,rev?*%
%TF.SameCoordinates,Original*%
%TF.FileFunction,Legend,Bot*%
%TF.FilePolarity,Positive*%
%FSLAX46Y46*%
G04 Gerber Fmt 4.6, Leading zero omitted, Abs format (unit mm)*
G04 Created by KiCad (PCBNEW 8.0.0) date 2024-04-01 16:50:34*
%MOMM*%
%LPD*%
G01*
G04 APERTURE LIST*
%ADD10C,0.150000*%
%ADD11C,0.120000*%
G04 APERTURE END LIST*
D10*
X104609580Y-90083333D02*
X104657200Y-90035714D01*
X104657200Y-90035714D02*
X104704819Y-89892857D01*
X104704819Y-89892857D02*
X104704819Y-89797619D01*
X104704819Y-89797619D02*
X104657200Y-89654762D01*
X104657200Y-89654762D02*
X104561961Y-89559524D01*
X104561961Y-89559524D02*
X104466723Y-89511905D01*
X104466723Y-89511905D02*
X104276247Y-89464286D01*
X104276247Y-89464286D02*
X104133390Y-89464286D01*
X104133390Y-89464286D02*
X103942914Y-89511905D01*
X103942914Y-89511905D02*
X103847676Y-89559524D01*
X103847676Y-89559524D02*
X103752438Y-89654762D01*
X103752438Y-89654762D02*
X103704819Y-89797619D01*
X103704819Y-89797619D02*
X103704819Y-89892857D01*
X103704819Y-89892857D02*
X103752438Y-90035714D01*
X103752438Y-90035714D02*
X103800057Y-90083333D01*
X103704819Y-90940476D02*
X103704819Y-90750000D01*
X103704819Y-90750000D02*
X103752438Y-90654762D01*
X103752438Y-90654762D02*
X103800057Y-90607143D01*
X103800057Y-90607143D02*
X103942914Y-90511905D01*
X103942914Y-90511905D02*
X104133390Y-90464286D01*
X104133390Y-90464286D02*
X104514342Y-90464286D01*
X104514342Y-90464286D02*
X104609580Y-90511905D01*
X104609580Y-90511905D02*
X104657200Y-90559524D01*
X104657200Y-90559524D02*
X104704819Y-90654762D01*
X104704819Y-90654762D02*
X104704819Y-90845238D01*
X104704819Y-90845238D02*
X104657200Y-90940476D01*
X104657200Y-90940476D02*
X104609580Y-90988095D01*
X104609580Y-90988095D02*
X104514342Y-91035714D01*
X104514342Y-91035714D02*
X104276247Y-91035714D01*
X104276247Y-91035714D02*
X104181009Y-90988095D01*
X104181009Y-90988095D02*
X104133390Y-90940476D01*
X104133390Y-90940476D02*
X104085771Y-90845238D01*
X104085771Y-90845238D02*
X104085771Y-90654762D01*
X104085771Y-90654762D02*
X104133390Y-90559524D01*
X104133390Y-90559524D02*
X104181009Y-90511905D01*
X104181009Y-90511905D02*
X104276247Y-90464286D01*
X100746190Y-123444819D02*
X101079523Y-122968628D01*
X101317618Y-123444819D02*
X101317618Y-122444819D01*
X101317618Y-122444819D02*
X100936666Y-122444819D01*
X100936666Y-122444819D02*
X100841428Y-122492438D01*
X100841428Y-122492438D02*
X100793809Y-122540057D01*
X100793809Y-122540057D02*
X100746190Y-122635295D01*
X100746190Y-122635295D02*
X100746190Y-122778152D01*
X100746190Y-122778152D02*
X100793809Y-122873390D01*
X100793809Y-122873390D02*
X100841428Y-122921009D01*
X100841428Y-122921009D02*
X100936666Y-122968628D01*
X100936666Y-122968628D02*
X101317618Y-122968628D01*
X99889047Y-123444819D02*
X99889047Y-122921009D01*
X99889047Y-122921009D02*
X99936666Y-122825771D01*
X99936666Y-122825771D02*
X100031904Y-122778152D01*
X100031904Y-122778152D02*
X100222380Y-122778152D01*
X100222380Y-122778152D02*
X100317618Y-122825771D01*
X99889047Y-123397200D02*
X99984285Y-123444819D01*
X99984285Y-123444819D02*
X100222380Y-123444819D01*
X100222380Y-123444819D02*
X100317618Y-123397200D01*
X100317618Y-123397200D02*
X100365237Y-123301961D01*
X100365237Y-123301961D02*
X100365237Y-123206723D01*
X100365237Y-123206723D02*
X100317618Y-123111485D01*
X100317618Y-123111485D02*
X100222380Y-123063866D01*
X100222380Y-123063866D02*
X99984285Y-123063866D01*
X99984285Y-123063866D02*
X99889047Y-123016247D01*
X99460475Y-123397200D02*
X99365237Y-123444819D01*
X99365237Y-123444819D02*
X99174761Y-123444819D01*
X99174761Y-123444819D02*
X99079523Y-123397200D01*
X99079523Y-123397200D02*
X99031904Y-123301961D01*
X99031904Y-123301961D02*
X99031904Y-123254342D01*
X99031904Y-123254342D02*
X99079523Y-123159104D01*
X99079523Y-123159104D02*
X99174761Y-123111485D01*
X99174761Y-123111485D02*
X99317618Y-123111485D01*
X99317618Y-123111485D02*
X99412856Y-123063866D01*
X99412856Y-123063866D02*
X99460475Y-122968628D01*
X99460475Y-122968628D02*
X99460475Y-122921009D01*
X99460475Y-122921009D02*
X99412856Y-122825771D01*
X99412856Y-122825771D02*
X99317618Y-122778152D01*
X99317618Y-122778152D02*
X99174761Y-122778152D01*
X99174761Y-122778152D02*
X99079523Y-122825771D01*
X98603332Y-122778152D02*
X98603332Y-123778152D01*
X98603332Y-122825771D02*
X98508094Y-122778152D01*
X98508094Y-122778152D02*
X98317618Y-122778152D01*
X98317618Y-122778152D02*
X98222380Y-122825771D01*
X98222380Y-122825771D02*
X98174761Y-122873390D01*
X98174761Y-122873390D02*
X98127142Y-122968628D01*
X98127142Y-122968628D02*
X98127142Y-123254342D01*
X98127142Y-123254342D02*
X98174761Y-123349580D01*
X98174761Y-123349580D02*
X98222380Y-123397200D01*
X98222380Y-123397200D02*
X98317618Y-123444819D01*
X98317618Y-123444819D02*
X98508094Y-123444819D01*
X98508094Y-123444819D02*
X98603332Y-123397200D01*
X97698570Y-123444819D02*
X97698570Y-122778152D01*
X97698570Y-122444819D02*
X97746189Y-122492438D01*
X97746189Y-122492438D02*
X97698570Y-122540057D01*
X97698570Y-122540057D02*
X97650951Y-122492438D01*
X97650951Y-122492438D02*
X97698570Y-122444819D01*
X97698570Y-122444819D02*
X97698570Y-122540057D01*
X97222380Y-123444819D02*
X97222380Y-122444819D01*
X96555714Y-122444819D02*
X96365238Y-122444819D01*
X96365238Y-122444819D02*
X96270000Y-122492438D01*
X96270000Y-122492438D02*
X96174762Y-122587676D01*
X96174762Y-122587676D02*
X96127143Y-122778152D01*
X96127143Y-122778152D02*
X96127143Y-123111485D01*
X96127143Y-123111485D02*
X96174762Y-123301961D01*
X96174762Y-123301961D02*
X96270000Y-123397200D01*
X96270000Y-123397200D02*
X96365238Y-123444819D01*
X96365238Y-123444819D02*
X96555714Y-123444819D01*
X96555714Y-123444819D02*
X96650952Y-123397200D01*
X96650952Y-123397200D02*
X96746190Y-123301961D01*
X96746190Y-123301961D02*
X96793809Y-123111485D01*
X96793809Y-123111485D02*
X96793809Y-122778152D01*
X96793809Y-122778152D02*
X96746190Y-122587676D01*
X96746190Y-122587676D02*
X96650952Y-122492438D01*
X96650952Y-122492438D02*
X96555714Y-122444819D01*
X95174762Y-123444819D02*
X95746190Y-123444819D01*
X95460476Y-123444819D02*
X95460476Y-122444819D01*
X95460476Y-122444819D02*
X95555714Y-122587676D01*
X95555714Y-122587676D02*
X95650952Y-122682914D01*
X95650952Y-122682914D02*
X95746190Y-122730533D01*
D11*
%TO.C,C6*%
X106525000Y-87945225D02*
X106525000Y-87445225D01*
X106775000Y-87695225D02*
X106275000Y-87695225D01*
X106960000Y-90490000D02*
X105431000Y-90490000D01*
X106960000Y-90530000D02*
X105435000Y-90530000D01*
X106960000Y-90570000D02*
X105439000Y-90570000D01*
X106960000Y-90610000D02*
X105444000Y-90610000D01*
X106960000Y-90650000D02*
X105450000Y-90650000D01*
X106960000Y-90690000D02*
X105457000Y-90690000D01*
X106960000Y-90730000D02*
X105464000Y-90730000D01*
X106960000Y-90770000D02*
X105472000Y-90770000D01*
X106960000Y-90810000D02*
X105480000Y-90810000D01*
X106960000Y-90850000D02*
X105489000Y-90850000D01*
X106960000Y-90890000D02*
X105499000Y-90890000D01*
X106960000Y-90930000D02*
X105509000Y-90930000D01*
X106960000Y-90971000D02*
X105520000Y-90971000D01*
X106960000Y-91011000D02*
X105532000Y-91011000D01*
X106960000Y-91051000D02*
X105545000Y-91051000D01*
X106960000Y-91091000D02*
X105558000Y-91091000D01*
X106960000Y-91131000D02*
X105572000Y-91131000D01*
X106960000Y-91171000D02*
X105586000Y-91171000D01*
X106960000Y-91211000D02*
X105602000Y-91211000D01*
X106960000Y-91251000D02*
X105618000Y-91251000D01*
X106960000Y-91291000D02*
X105635000Y-91291000D01*
X106960000Y-91331000D02*
X105652000Y-91331000D01*
X106960000Y-91371000D02*
X105671000Y-91371000D01*
X106960000Y-91411000D02*
X105690000Y-91411000D01*
X106960000Y-91451000D02*
X105710000Y-91451000D01*
X106960000Y-91491000D02*
X105732000Y-91491000D01*
X106960000Y-91531000D02*
X105753000Y-91531000D01*
X106960000Y-91571000D02*
X105776000Y-91571000D01*
X106960000Y-91611000D02*
X105800000Y-91611000D01*
X106960000Y-91651000D02*
X105825000Y-91651000D01*
X106960000Y-91691000D02*
X105851000Y-91691000D01*
X106960000Y-91731000D02*
X105878000Y-91731000D01*
X106960000Y-91771000D02*
X105905000Y-91771000D01*
X106960000Y-91811000D02*
X105935000Y-91811000D01*
X106960000Y-91851000D02*
X105965000Y-91851000D01*
X106960000Y-91891000D02*
X105996000Y-91891000D01*
X106960000Y-91931000D02*
X106029000Y-91931000D01*
X106960000Y-91971000D02*
X106063000Y-91971000D01*
X106960000Y-92011000D02*
X106099000Y-92011000D01*
X106960000Y-92051000D02*
X106136000Y-92051000D01*
X106960000Y-92091000D02*
X106174000Y-92091000D01*
X106960000Y-92131000D02*
X106215000Y-92131000D01*
X106960000Y-92171000D02*
X106257000Y-92171000D01*
X106960000Y-92211000D02*
X106301000Y-92211000D01*
X106960000Y-92251000D02*
X106347000Y-92251000D01*
X106960000Y-92291000D02*
X106395000Y-92291000D01*
X106960000Y-92331000D02*
X106446000Y-92331000D01*
X106960000Y-92371000D02*
X106500000Y-92371000D01*
X106960000Y-92411000D02*
X106557000Y-92411000D01*
X106960000Y-92451000D02*
X106617000Y-92451000D01*
X106960000Y-92491000D02*
X106681000Y-92491000D01*
X106960000Y-92531000D02*
X106749000Y-92531000D01*
X108284000Y-92851000D02*
X107716000Y-92851000D01*
X108518000Y-92811000D02*
X107482000Y-92811000D01*
X108677000Y-92771000D02*
X107323000Y-92771000D01*
X108805000Y-92731000D02*
X107195000Y-92731000D01*
X108915000Y-92691000D02*
X107085000Y-92691000D01*
X109011000Y-92651000D02*
X106989000Y-92651000D01*
X109098000Y-92611000D02*
X106902000Y-92611000D01*
X109178000Y-92571000D02*
X106822000Y-92571000D01*
X109251000Y-92531000D02*
X109040000Y-92531000D01*
X109319000Y-92491000D02*
X109040000Y-92491000D01*
X109383000Y-92451000D02*
X109040000Y-92451000D01*
X109443000Y-92411000D02*
X109040000Y-92411000D01*
X109500000Y-92371000D02*
X109040000Y-92371000D01*
X109554000Y-92331000D02*
X109040000Y-92331000D01*
X109605000Y-92291000D02*
X109040000Y-92291000D01*
X109653000Y-92251000D02*
X109040000Y-92251000D01*
X109699000Y-92211000D02*
X109040000Y-92211000D01*
X109743000Y-92171000D02*
X109040000Y-92171000D01*
X109785000Y-92131000D02*
X109040000Y-92131000D01*
X109826000Y-92091000D02*
X109040000Y-92091000D01*
X109864000Y-92051000D02*
X109040000Y-92051000D01*
X109901000Y-92011000D02*
X109040000Y-92011000D01*
X109937000Y-91971000D02*
X109040000Y-91971000D01*
X109971000Y-91931000D02*
X109040000Y-91931000D01*
X110004000Y-91891000D02*
X109040000Y-91891000D01*
X110035000Y-91851000D02*
X109040000Y-91851000D01*
X110065000Y-91811000D02*
X109040000Y-91811000D01*
X110095000Y-91771000D02*
X109040000Y-91771000D01*
X110122000Y-91731000D02*
X109040000Y-91731000D01*
X110149000Y-91691000D02*
X109040000Y-91691000D01*
X110175000Y-91651000D02*
X109040000Y-91651000D01*
X110200000Y-91611000D02*
X109040000Y-91611000D01*
X110224000Y-91571000D02*
X109040000Y-91571000D01*
X110247000Y-91531000D02*
X109040000Y-91531000D01*
X110268000Y-91491000D02*
X109040000Y-91491000D01*
X110290000Y-91451000D02*
X109040000Y-91451000D01*
X110310000Y-91411000D02*
X109040000Y-91411000D01*
X110329000Y-91371000D02*
X109040000Y-91371000D01*
X110348000Y-91331000D02*
X109040000Y-91331000D01*
X110365000Y-91291000D02*
X109040000Y-91291000D01*
X110382000Y-91251000D02*
X109040000Y-91251000D01*
X110398000Y-91211000D02*
X109040000Y-91211000D01*
X110414000Y-91171000D02*
X109040000Y-91171000D01*
X110428000Y-91131000D02*
X109040000Y-91131000D01*
X110442000Y-91091000D02*
X109040000Y-91091000D01*
X110455000Y-91051000D02*
X109040000Y-91051000D01*
X110468000Y-91011000D02*
X109040000Y-91011000D01*
X110480000Y-90971000D02*
X109040000Y-90971000D01*
X110491000Y-90930000D02*
X109040000Y-90930000D01*
X110501000Y-90890000D02*
X109040000Y-90890000D01*
X110511000Y-90850000D02*
X109040000Y-90850000D01*
X110520000Y-90810000D02*
X109040000Y-90810000D01*
X110528000Y-90770000D02*
X109040000Y-90770000D01*
X110536000Y-90730000D02*
X109040000Y-90730000D01*
X110543000Y-90690000D02*
X109040000Y-90690000D01*
X110550000Y-90650000D02*
X109040000Y-90650000D01*
X110556000Y-90610000D02*
X109040000Y-90610000D01*
X110561000Y-90570000D02*
X109040000Y-90570000D01*
X110565000Y-90530000D02*
X109040000Y-90530000D01*
X110569000Y-90490000D02*
X109040000Y-90490000D01*
X110573000Y-90450000D02*
X105427000Y-90450000D01*
X110576000Y-90410000D02*
X105424000Y-90410000D01*
X110578000Y-90370000D02*
X105422000Y-90370000D01*
X110579000Y-90330000D02*
X105421000Y-90330000D01*
X110580000Y-90250000D02*
X105420000Y-90250000D01*
X110580000Y-90290000D02*
X105420000Y-90290000D01*
X110620000Y-90250000D02*
G75*
G02*
X105380000Y-90250000I-2620000J0D01*
G01*
X105380000Y-90250000D02*
G75*
G02*
X110620000Y-90250000I2620000J0D01*
G01*
%TO.C,RaspiIO1*%
X95670000Y-71070000D02*
X95670000Y-119390000D01*
X95670000Y-121990000D02*
X95670000Y-120660000D01*
X97000000Y-121990000D02*
X95670000Y-121990000D01*
X98270000Y-119390000D02*
X95670000Y-119390000D01*
X98270000Y-121990000D02*
X98270000Y-119390000D01*
X100870000Y-71070000D02*
X95670000Y-71070000D01*
X100870000Y-71070000D02*
X100870000Y-121990000D01*
X100870000Y-121990000D02*
X98270000Y-121990000D01*
%TD*%
M02*
