%TF.GenerationSoftware,KiCad,Pcbnew,8.0.0*%
%TF.CreationDate,2024-04-01T16:50:34+09:00*%
%TF.ProjectId,Raverack,52617665-7261-4636-9b2e-6b696361645f,rev?*%
%TF.SameCoordinates,Original*%
%TF.FileFunction,Soldermask,Bot*%
%TF.FilePolarity,Negative*%
%FSLAX46Y46*%
G04 Gerber Fmt 4.6, Leading zero omitted, Abs format (unit mm)*
G04 Created by KiCad (PCBNEW 8.0.0) date 2024-04-01 16:50:34*
%MOMM*%
%LPD*%
G01*
G04 APERTURE LIST*
G04 Aperture macros list*
%AMRoundRect*
0 Rectangle with rounded corners*
0 $1 Rounding radius*
0 $2 $3 $4 $5 $6 $7 $8 $9 X,Y pos of 4 corners*
0 Add a 4 corners polygon primitive as box body*
4,1,4,$2,$3,$4,$5,$6,$7,$8,$9,$2,$3,0*
0 Add four circle primitives for the rounded corners*
1,1,$1+$1,$2,$3*
1,1,$1+$1,$4,$5*
1,1,$1+$1,$6,$7*
1,1,$1+$1,$8,$9*
0 Add four rect primitives between the rounded corners*
20,1,$1+$1,$2,$3,$4,$5,0*
20,1,$1+$1,$4,$5,$6,$7,0*
20,1,$1+$1,$6,$7,$8,$9,0*
20,1,$1+$1,$8,$9,$2,$3,0*%
G04 Aperture macros list end*
%ADD10C,1.600000*%
%ADD11C,1.400000*%
%ADD12O,1.400000X1.400000*%
%ADD13R,1.600000X1.600000*%
%ADD14O,1.600000X1.600000*%
%ADD15R,1.930000X1.830000*%
%ADD16C,2.130000*%
%ADD17R,1.500000X1.500000*%
%ADD18C,1.500000*%
%ADD19R,1.700000X1.700000*%
%ADD20O,1.700000X1.700000*%
%ADD21R,1.800000X1.800000*%
%ADD22C,1.800000*%
%ADD23RoundRect,0.750000X0.750000X-1.250000X0.750000X1.250000X-0.750000X1.250000X-0.750000X-1.250000X0*%
G04 APERTURE END LIST*
D10*
%TO.C,C2*%
X122000000Y-102250000D03*
X122000000Y-104750000D03*
%TD*%
D11*
%TO.C,R4*%
X151960000Y-102000000D03*
D12*
X157040000Y-102000000D03*
%TD*%
D11*
%TO.C,R2*%
X126460000Y-102000000D03*
D12*
X131540000Y-102000000D03*
%TD*%
D13*
%TO.C,D1*%
X113500000Y-106500000D03*
D14*
X113500000Y-114120000D03*
%TD*%
D15*
%TO.C,J2*%
X126000000Y-129280000D03*
D16*
X126000000Y-117880000D03*
X126000000Y-126180000D03*
%TD*%
D10*
%TO.C,C4*%
X148000000Y-102000000D03*
X148000000Y-104500000D03*
%TD*%
D17*
%TO.C,Q2*%
X122000000Y-82000000D03*
D18*
X119460000Y-82000000D03*
X116920000Y-82000000D03*
%TD*%
D19*
%TO.C,ADS1115_A1*%
X161160000Y-93500000D03*
D20*
X158620000Y-93500000D03*
X156080000Y-93500000D03*
X153540000Y-93500000D03*
X151000000Y-93500000D03*
X148460000Y-93500000D03*
X145920000Y-93500000D03*
X143380000Y-93500000D03*
X140840000Y-93500000D03*
X138300000Y-93500000D03*
%TD*%
D11*
%TO.C,R1*%
X113460000Y-102000000D03*
D12*
X118540000Y-102000000D03*
%TD*%
D13*
%TO.C,D5*%
X139500000Y-106690000D03*
D14*
X139500000Y-114310000D03*
%TD*%
D21*
%TO.C,D8*%
X183225000Y-56500000D03*
D22*
X185765000Y-56500000D03*
%TD*%
D13*
%TO.C,D9*%
X156000000Y-106690000D03*
D14*
X156000000Y-114310000D03*
%TD*%
D21*
%TO.C,RV3*%
X156500000Y-49000000D03*
D22*
X159000000Y-49000000D03*
X161500000Y-49000000D03*
D23*
X154600000Y-42000000D03*
X163400000Y-42000000D03*
%TD*%
D11*
%TO.C,R9*%
X125500000Y-72460000D03*
D12*
X125500000Y-77540000D03*
%TD*%
D15*
%TO.C,J4*%
X153500000Y-129280000D03*
D16*
X153500000Y-117880000D03*
X153500000Y-126180000D03*
%TD*%
D11*
%TO.C,R5*%
X180500000Y-56500000D03*
D12*
X175420000Y-56500000D03*
%TD*%
D13*
%TO.C,D11*%
X95190000Y-126500000D03*
D14*
X102810000Y-126500000D03*
%TD*%
D21*
%TO.C,D10*%
X183225000Y-65000000D03*
D22*
X185765000Y-65000000D03*
%TD*%
D13*
%TO.C,D6*%
X144000000Y-106690000D03*
D14*
X144000000Y-114310000D03*
%TD*%
D10*
%TO.C,C3*%
X135000000Y-102250000D03*
X135000000Y-104750000D03*
%TD*%
D13*
%TO.C,D7*%
X151500000Y-106690000D03*
D14*
X151500000Y-114310000D03*
%TD*%
D21*
%TO.C,RV4*%
X181500000Y-49000000D03*
D22*
X184000000Y-49000000D03*
X186500000Y-49000000D03*
D23*
X179600000Y-42000000D03*
X188400000Y-42000000D03*
%TD*%
D13*
%TO.C,D2*%
X118000000Y-106500000D03*
D14*
X118000000Y-114120000D03*
%TD*%
D15*
%TO.C,J1*%
X112500000Y-129280000D03*
D16*
X112500000Y-117880000D03*
X112500000Y-126180000D03*
%TD*%
D15*
%TO.C,J5*%
X179500000Y-129280000D03*
D16*
X179500000Y-117880000D03*
X179500000Y-126180000D03*
%TD*%
D11*
%TO.C,R3*%
X139500000Y-102000000D03*
D12*
X144580000Y-102000000D03*
%TD*%
D21*
%TO.C,RV1*%
X106600000Y-48950000D03*
D22*
X109100000Y-48950000D03*
X111600000Y-48950000D03*
D23*
X104700000Y-41950000D03*
X113500000Y-41950000D03*
%TD*%
D15*
%TO.C,J3*%
X140000000Y-129280000D03*
D16*
X140000000Y-117880000D03*
X140000000Y-126180000D03*
%TD*%
D11*
%TO.C,R7*%
X109500000Y-72460000D03*
D12*
X109500000Y-77540000D03*
%TD*%
D11*
%TO.C,R10*%
X129500000Y-72460000D03*
D12*
X129500000Y-77540000D03*
%TD*%
D10*
%TO.C,C1*%
X109000000Y-102250000D03*
X109000000Y-104750000D03*
%TD*%
D11*
%TO.C,R8*%
X113500000Y-72460000D03*
D12*
X113500000Y-77540000D03*
%TD*%
D11*
%TO.C,R6*%
X180540000Y-65000000D03*
D12*
X175460000Y-65000000D03*
%TD*%
D19*
%TO.C,PCM5102*%
X185080000Y-79000000D03*
D20*
X182540000Y-79000000D03*
X180000000Y-79000000D03*
X177460000Y-79000000D03*
X174920000Y-79000000D03*
X172380000Y-79000000D03*
%TD*%
D13*
%TO.C,D4*%
X131000000Y-106500000D03*
D14*
X131000000Y-114120000D03*
%TD*%
D13*
%TO.C,D3*%
X126500000Y-106500000D03*
D14*
X126500000Y-114120000D03*
%TD*%
D17*
%TO.C,Q1*%
X122040000Y-72500000D03*
D18*
X119500000Y-72500000D03*
X116960000Y-72500000D03*
%TD*%
D10*
%TO.C,C5*%
X114500000Y-88750000D03*
X114500000Y-91250000D03*
%TD*%
D19*
%TO.C,AudioOut1*%
X185500000Y-103275000D03*
D20*
X185500000Y-100735000D03*
%TD*%
D19*
%TO.C,ADS1115_B1*%
X160860000Y-73500000D03*
D20*
X158320000Y-73500000D03*
X155780000Y-73500000D03*
X153240000Y-73500000D03*
X150700000Y-73500000D03*
X148160000Y-73500000D03*
X145620000Y-73500000D03*
X143080000Y-73500000D03*
X140540000Y-73500000D03*
X138000000Y-73500000D03*
%TD*%
D21*
%TO.C,RV2*%
X131500000Y-48950000D03*
D22*
X134000000Y-48950000D03*
X136500000Y-48950000D03*
D23*
X129600000Y-41950000D03*
X138400000Y-41950000D03*
%TD*%
D13*
%TO.C,C6*%
X108000000Y-89000000D03*
D10*
X108000000Y-91500000D03*
%TD*%
D19*
%TO.C,RaspiIO1*%
X97000000Y-120660000D03*
D20*
X99540000Y-120660000D03*
X97000000Y-118120000D03*
X99540000Y-118120000D03*
X97000000Y-115580000D03*
X99540000Y-115580000D03*
X97000000Y-113040000D03*
X99540000Y-113040000D03*
X97000000Y-110500000D03*
X99540000Y-110500000D03*
X97000000Y-107960000D03*
X99540000Y-107960000D03*
X97000000Y-105420000D03*
X99540000Y-105420000D03*
X97000000Y-102880000D03*
X99540000Y-102880000D03*
X97000000Y-100340000D03*
X99540000Y-100340000D03*
X97000000Y-97800000D03*
X99540000Y-97800000D03*
X97000000Y-95260000D03*
X99540000Y-95260000D03*
X97000000Y-92720000D03*
X99540000Y-92720000D03*
X97000000Y-90180000D03*
X99540000Y-90180000D03*
X97000000Y-87640000D03*
X99540000Y-87640000D03*
X97000000Y-85100000D03*
X99540000Y-85100000D03*
X97000000Y-82560000D03*
X99540000Y-82560000D03*
X97000000Y-80020000D03*
X99540000Y-80020000D03*
X97000000Y-77480000D03*
X99540000Y-77480000D03*
X97000000Y-74940000D03*
X99540000Y-74940000D03*
X97000000Y-72400000D03*
X99540000Y-72400000D03*
%TD*%
M02*
