M48
; DRILL file {KiCad 8.0.0} date 2024-04-01T16:50:38+0900
; FORMAT={-:-/ absolute / inch / decimal}
; #@! TF.CreationDate,2024-04-01T16:50:38+09:00
; #@! TF.GenerationSoftware,Kicad,Pcbnew,8.0.0
; #@! TF.FileFunction,Plated,1,2,PTH
FMAT,2
INCH
; #@! TA.AperFunction,Plated,PTH,ComponentDrill
T1C0.0276
; #@! TA.AperFunction,Plated,PTH,ComponentDrill
T2C0.0315
; #@! TA.AperFunction,Plated,PTH,ComponentDrill
T3C0.0354
; #@! TA.AperFunction,Plated,PTH,ComponentDrill
T4C0.0394
; #@! TA.AperFunction,Plated,PTH,ComponentDrill
T5C0.0480
; #@! TA.AperFunction,Plated,PTH,ComponentDrill
T6C0.0559
; #@! TA.AperFunction,Plated,PTH,ComponentDrill
T7C0.0563
; #@! TA.AperFunction,Plated,PTH,ComponentDrill
T8C0.0709
%
G90
G05
T1
X4.311Y-2.8528
X4.311Y-3.0528
X4.4669Y-4.0157
X4.4685Y-2.8528
X4.4685Y-3.0528
X4.6669Y-4.0157
X4.9409Y-2.8528
X4.9409Y-3.0528
X4.9787Y-4.0157
X5.0984Y-2.8528
X5.0984Y-3.0528
X5.1787Y-4.0157
X5.4921Y-4.0157
X5.6921Y-4.0157
X5.9827Y-4.0157
X6.1827Y-4.0157
X6.9063Y-2.2244
X6.9079Y-2.5591
X7.1063Y-2.2244
X7.1079Y-2.5591
T2
X3.7476Y-4.9803
X4.0476Y-4.9803
X4.252Y-3.5039
X4.252Y-3.6024
X4.2913Y-4.0256
X4.2913Y-4.124
X4.4685Y-4.1929
X4.4685Y-4.4929
X4.5079Y-3.4941
X4.5079Y-3.5925
X4.6031Y-3.2283
X4.6047Y-2.8543
X4.6457Y-4.1929
X4.6457Y-4.4929
X4.7031Y-3.2283
X4.7047Y-2.8543
X4.8031Y-3.2283
X4.8031Y-4.0256
X4.8031Y-4.124
X4.8047Y-2.8543
X4.9803Y-4.1929
X4.9803Y-4.4929
X5.1575Y-4.1929
X5.1575Y-4.4929
X5.315Y-4.0256
X5.315Y-4.124
X5.4921Y-4.2004
X5.4921Y-4.5004
X5.6693Y-4.2004
X5.6693Y-4.5004
X5.8268Y-4.0157
X5.8268Y-4.1142
X5.9646Y-4.2004
X5.9646Y-4.5004
X6.1417Y-4.2004
X6.1417Y-4.5004
T3
X7.2136Y-2.2244
X7.2136Y-2.5591
X7.3136Y-2.2244
X7.3136Y-2.5591
T4
X3.8189Y-2.8504
X3.8189Y-2.9504
X3.8189Y-3.0504
X3.8189Y-3.1504
X3.8189Y-3.2504
X3.8189Y-3.3504
X3.8189Y-3.4504
X3.8189Y-3.5504
X3.8189Y-3.6504
X3.8189Y-3.7504
X3.8189Y-3.8504
X3.8189Y-3.9504
X3.8189Y-4.0504
X3.8189Y-4.1504
X3.8189Y-4.2504
X3.8189Y-4.3504
X3.8189Y-4.4504
X3.8189Y-4.5504
X3.8189Y-4.6504
X3.8189Y-4.7504
X3.9189Y-2.8504
X3.9189Y-2.9504
X3.9189Y-3.0504
X3.9189Y-3.1504
X3.9189Y-3.2504
X3.9189Y-3.3504
X3.9189Y-3.4504
X3.9189Y-3.5504
X3.9189Y-3.6504
X3.9189Y-3.7504
X3.9189Y-3.8504
X3.9189Y-3.9504
X3.9189Y-4.0504
X3.9189Y-4.1504
X3.9189Y-4.2504
X3.9189Y-4.3504
X3.9189Y-4.4504
X3.9189Y-4.5504
X3.9189Y-4.6504
X3.9189Y-4.7504
X4.1969Y-1.9272
X4.2953Y-1.9272
X4.3937Y-1.9272
X5.1772Y-1.9272
X5.2756Y-1.9272
X5.374Y-1.9272
X5.4331Y-2.8937
X5.4449Y-3.6811
X5.5331Y-2.8937
X5.5449Y-3.6811
X5.6331Y-2.8937
X5.6449Y-3.6811
X5.7331Y-2.8937
X5.7449Y-3.6811
X5.8331Y-2.8937
X5.8449Y-3.6811
X5.9331Y-2.8937
X5.9449Y-3.6811
X6.0331Y-2.8937
X6.0449Y-3.6811
X6.1331Y-2.8937
X6.1449Y-3.6811
X6.1614Y-1.9291
X6.2331Y-2.8937
X6.2449Y-3.6811
X6.2598Y-1.9291
X6.3331Y-2.8937
X6.3449Y-3.6811
X6.3583Y-1.9291
X6.7866Y-3.1102
X6.8866Y-3.1102
X6.9866Y-3.1102
X7.0866Y-3.1102
X7.1457Y-1.9291
X7.1866Y-3.1102
X7.2441Y-1.9291
X7.2866Y-3.1102
X7.3031Y-3.9659
X7.3031Y-4.0659
X7.3425Y-1.9291
T5
X4.4291Y-5.0898
X4.9606Y-5.0898
X5.5118Y-5.0898
X6.0433Y-5.0898
X7.0669Y-5.0898
T6
X4.4291Y-4.9677
X4.9606Y-4.9677
X5.5118Y-4.9677
X6.0433Y-4.9677
X7.0669Y-4.9677
T7
X4.4291Y-4.6409
X4.9606Y-4.6409
X5.5118Y-4.6409
X6.0433Y-4.6409
X7.0669Y-4.6409
T8
G00X4.122Y-1.6575
M15
G01X4.122Y-1.6457
M16
G05
G00X4.4685Y-1.6575
M15
G01X4.4685Y-1.6457
M16
G05
G00X5.1024Y-1.6575
M15
G01X5.1024Y-1.6457
M16
G05
G00X5.4488Y-1.6575
M15
G01X5.4488Y-1.6457
M16
G05
G00X6.0866Y-1.6594
M15
G01X6.0866Y-1.6476
M16
G05
G00X6.4331Y-1.6594
M15
G01X6.4331Y-1.6476
M16
G05
G00X7.0709Y-1.6594
M15
G01X7.0709Y-1.6476
M16
G05
G00X7.4173Y-1.6594
M15
G01X7.4173Y-1.6476
M16
G05
M30
