%TF.GenerationSoftware,KiCad,Pcbnew,8.0.0*%
%TF.CreationDate,2024-04-01T16:50:34+09:00*%
%TF.ProjectId,Raverack,52617665-7261-4636-9b2e-6b696361645f,rev?*%
%TF.SameCoordinates,Original*%
%TF.FileFunction,Legend,Top*%
%TF.FilePolarity,Positive*%
%FSLAX46Y46*%
G04 Gerber Fmt 4.6, Leading zero omitted, Abs format (unit mm)*
G04 Created by KiCad (PCBNEW 8.0.0) date 2024-04-01 16:50:34*
%MOMM*%
%LPD*%
G01*
G04 APERTURE LIST*
%ADD10C,0.150000*%
%ADD11C,0.120000*%
G04 APERTURE END LIST*
D10*
X124909580Y-103666666D02*
X124957200Y-103714285D01*
X124957200Y-103714285D02*
X125004819Y-103857142D01*
X125004819Y-103857142D02*
X125004819Y-103952380D01*
X125004819Y-103952380D02*
X124957200Y-104095237D01*
X124957200Y-104095237D02*
X124861961Y-104190475D01*
X124861961Y-104190475D02*
X124766723Y-104238094D01*
X124766723Y-104238094D02*
X124576247Y-104285713D01*
X124576247Y-104285713D02*
X124433390Y-104285713D01*
X124433390Y-104285713D02*
X124242914Y-104238094D01*
X124242914Y-104238094D02*
X124147676Y-104190475D01*
X124147676Y-104190475D02*
X124052438Y-104095237D01*
X124052438Y-104095237D02*
X124004819Y-103952380D01*
X124004819Y-103952380D02*
X124004819Y-103857142D01*
X124004819Y-103857142D02*
X124052438Y-103714285D01*
X124052438Y-103714285D02*
X124100057Y-103666666D01*
X124100057Y-103285713D02*
X124052438Y-103238094D01*
X124052438Y-103238094D02*
X124004819Y-103142856D01*
X124004819Y-103142856D02*
X124004819Y-102904761D01*
X124004819Y-102904761D02*
X124052438Y-102809523D01*
X124052438Y-102809523D02*
X124100057Y-102761904D01*
X124100057Y-102761904D02*
X124195295Y-102714285D01*
X124195295Y-102714285D02*
X124290533Y-102714285D01*
X124290533Y-102714285D02*
X124433390Y-102761904D01*
X124433390Y-102761904D02*
X125004819Y-103333332D01*
X125004819Y-103333332D02*
X125004819Y-102714285D01*
X154333333Y-100534819D02*
X154000000Y-100058628D01*
X153761905Y-100534819D02*
X153761905Y-99534819D01*
X153761905Y-99534819D02*
X154142857Y-99534819D01*
X154142857Y-99534819D02*
X154238095Y-99582438D01*
X154238095Y-99582438D02*
X154285714Y-99630057D01*
X154285714Y-99630057D02*
X154333333Y-99725295D01*
X154333333Y-99725295D02*
X154333333Y-99868152D01*
X154333333Y-99868152D02*
X154285714Y-99963390D01*
X154285714Y-99963390D02*
X154238095Y-100011009D01*
X154238095Y-100011009D02*
X154142857Y-100058628D01*
X154142857Y-100058628D02*
X153761905Y-100058628D01*
X155190476Y-99868152D02*
X155190476Y-100534819D01*
X154952381Y-99487200D02*
X154714286Y-100201485D01*
X154714286Y-100201485D02*
X155333333Y-100201485D01*
X128833333Y-100534819D02*
X128500000Y-100058628D01*
X128261905Y-100534819D02*
X128261905Y-99534819D01*
X128261905Y-99534819D02*
X128642857Y-99534819D01*
X128642857Y-99534819D02*
X128738095Y-99582438D01*
X128738095Y-99582438D02*
X128785714Y-99630057D01*
X128785714Y-99630057D02*
X128833333Y-99725295D01*
X128833333Y-99725295D02*
X128833333Y-99868152D01*
X128833333Y-99868152D02*
X128785714Y-99963390D01*
X128785714Y-99963390D02*
X128738095Y-100011009D01*
X128738095Y-100011009D02*
X128642857Y-100058628D01*
X128642857Y-100058628D02*
X128261905Y-100058628D01*
X129214286Y-99630057D02*
X129261905Y-99582438D01*
X129261905Y-99582438D02*
X129357143Y-99534819D01*
X129357143Y-99534819D02*
X129595238Y-99534819D01*
X129595238Y-99534819D02*
X129690476Y-99582438D01*
X129690476Y-99582438D02*
X129738095Y-99630057D01*
X129738095Y-99630057D02*
X129785714Y-99725295D01*
X129785714Y-99725295D02*
X129785714Y-99820533D01*
X129785714Y-99820533D02*
X129738095Y-99963390D01*
X129738095Y-99963390D02*
X129166667Y-100534819D01*
X129166667Y-100534819D02*
X129785714Y-100534819D01*
X116074819Y-111048094D02*
X115074819Y-111048094D01*
X115074819Y-111048094D02*
X115074819Y-110809999D01*
X115074819Y-110809999D02*
X115122438Y-110667142D01*
X115122438Y-110667142D02*
X115217676Y-110571904D01*
X115217676Y-110571904D02*
X115312914Y-110524285D01*
X115312914Y-110524285D02*
X115503390Y-110476666D01*
X115503390Y-110476666D02*
X115646247Y-110476666D01*
X115646247Y-110476666D02*
X115836723Y-110524285D01*
X115836723Y-110524285D02*
X115931961Y-110571904D01*
X115931961Y-110571904D02*
X116027200Y-110667142D01*
X116027200Y-110667142D02*
X116074819Y-110809999D01*
X116074819Y-110809999D02*
X116074819Y-111048094D01*
X116074819Y-109524285D02*
X116074819Y-110095713D01*
X116074819Y-109809999D02*
X115074819Y-109809999D01*
X115074819Y-109809999D02*
X115217676Y-109905237D01*
X115217676Y-109905237D02*
X115312914Y-110000475D01*
X115312914Y-110000475D02*
X115360533Y-110095713D01*
X115754819Y-106761904D02*
X114754819Y-106761904D01*
X115754819Y-106190476D02*
X115183390Y-106619047D01*
X114754819Y-106190476D02*
X115326247Y-106761904D01*
X129696666Y-127654819D02*
X129696666Y-128369104D01*
X129696666Y-128369104D02*
X129649047Y-128511961D01*
X129649047Y-128511961D02*
X129553809Y-128607200D01*
X129553809Y-128607200D02*
X129410952Y-128654819D01*
X129410952Y-128654819D02*
X129315714Y-128654819D01*
X130125238Y-127750057D02*
X130172857Y-127702438D01*
X130172857Y-127702438D02*
X130268095Y-127654819D01*
X130268095Y-127654819D02*
X130506190Y-127654819D01*
X130506190Y-127654819D02*
X130601428Y-127702438D01*
X130601428Y-127702438D02*
X130649047Y-127750057D01*
X130649047Y-127750057D02*
X130696666Y-127845295D01*
X130696666Y-127845295D02*
X130696666Y-127940533D01*
X130696666Y-127940533D02*
X130649047Y-128083390D01*
X130649047Y-128083390D02*
X130077619Y-128654819D01*
X130077619Y-128654819D02*
X130696666Y-128654819D01*
X150909580Y-103416666D02*
X150957200Y-103464285D01*
X150957200Y-103464285D02*
X151004819Y-103607142D01*
X151004819Y-103607142D02*
X151004819Y-103702380D01*
X151004819Y-103702380D02*
X150957200Y-103845237D01*
X150957200Y-103845237D02*
X150861961Y-103940475D01*
X150861961Y-103940475D02*
X150766723Y-103988094D01*
X150766723Y-103988094D02*
X150576247Y-104035713D01*
X150576247Y-104035713D02*
X150433390Y-104035713D01*
X150433390Y-104035713D02*
X150242914Y-103988094D01*
X150242914Y-103988094D02*
X150147676Y-103940475D01*
X150147676Y-103940475D02*
X150052438Y-103845237D01*
X150052438Y-103845237D02*
X150004819Y-103702380D01*
X150004819Y-103702380D02*
X150004819Y-103607142D01*
X150004819Y-103607142D02*
X150052438Y-103464285D01*
X150052438Y-103464285D02*
X150100057Y-103416666D01*
X150338152Y-102559523D02*
X151004819Y-102559523D01*
X149957200Y-102797618D02*
X150671485Y-103035713D01*
X150671485Y-103035713D02*
X150671485Y-102416666D01*
X119364761Y-86110057D02*
X119269523Y-86062438D01*
X119269523Y-86062438D02*
X119174285Y-85967200D01*
X119174285Y-85967200D02*
X119031428Y-85824342D01*
X119031428Y-85824342D02*
X118936190Y-85776723D01*
X118936190Y-85776723D02*
X118840952Y-85776723D01*
X118888571Y-86014819D02*
X118793333Y-85967200D01*
X118793333Y-85967200D02*
X118698095Y-85871961D01*
X118698095Y-85871961D02*
X118650476Y-85681485D01*
X118650476Y-85681485D02*
X118650476Y-85348152D01*
X118650476Y-85348152D02*
X118698095Y-85157676D01*
X118698095Y-85157676D02*
X118793333Y-85062438D01*
X118793333Y-85062438D02*
X118888571Y-85014819D01*
X118888571Y-85014819D02*
X119079047Y-85014819D01*
X119079047Y-85014819D02*
X119174285Y-85062438D01*
X119174285Y-85062438D02*
X119269523Y-85157676D01*
X119269523Y-85157676D02*
X119317142Y-85348152D01*
X119317142Y-85348152D02*
X119317142Y-85681485D01*
X119317142Y-85681485D02*
X119269523Y-85871961D01*
X119269523Y-85871961D02*
X119174285Y-85967200D01*
X119174285Y-85967200D02*
X119079047Y-86014819D01*
X119079047Y-86014819D02*
X118888571Y-86014819D01*
X119698095Y-85110057D02*
X119745714Y-85062438D01*
X119745714Y-85062438D02*
X119840952Y-85014819D01*
X119840952Y-85014819D02*
X120079047Y-85014819D01*
X120079047Y-85014819D02*
X120174285Y-85062438D01*
X120174285Y-85062438D02*
X120221904Y-85110057D01*
X120221904Y-85110057D02*
X120269523Y-85205295D01*
X120269523Y-85205295D02*
X120269523Y-85300533D01*
X120269523Y-85300533D02*
X120221904Y-85443390D01*
X120221904Y-85443390D02*
X119650476Y-86014819D01*
X119650476Y-86014819D02*
X120269523Y-86014819D01*
X145135238Y-90169104D02*
X145611428Y-90169104D01*
X145040000Y-90454819D02*
X145373333Y-89454819D01*
X145373333Y-89454819D02*
X145706666Y-90454819D01*
X146040000Y-90454819D02*
X146040000Y-89454819D01*
X146040000Y-89454819D02*
X146278095Y-89454819D01*
X146278095Y-89454819D02*
X146420952Y-89502438D01*
X146420952Y-89502438D02*
X146516190Y-89597676D01*
X146516190Y-89597676D02*
X146563809Y-89692914D01*
X146563809Y-89692914D02*
X146611428Y-89883390D01*
X146611428Y-89883390D02*
X146611428Y-90026247D01*
X146611428Y-90026247D02*
X146563809Y-90216723D01*
X146563809Y-90216723D02*
X146516190Y-90311961D01*
X146516190Y-90311961D02*
X146420952Y-90407200D01*
X146420952Y-90407200D02*
X146278095Y-90454819D01*
X146278095Y-90454819D02*
X146040000Y-90454819D01*
X146992381Y-90407200D02*
X147135238Y-90454819D01*
X147135238Y-90454819D02*
X147373333Y-90454819D01*
X147373333Y-90454819D02*
X147468571Y-90407200D01*
X147468571Y-90407200D02*
X147516190Y-90359580D01*
X147516190Y-90359580D02*
X147563809Y-90264342D01*
X147563809Y-90264342D02*
X147563809Y-90169104D01*
X147563809Y-90169104D02*
X147516190Y-90073866D01*
X147516190Y-90073866D02*
X147468571Y-90026247D01*
X147468571Y-90026247D02*
X147373333Y-89978628D01*
X147373333Y-89978628D02*
X147182857Y-89931009D01*
X147182857Y-89931009D02*
X147087619Y-89883390D01*
X147087619Y-89883390D02*
X147040000Y-89835771D01*
X147040000Y-89835771D02*
X146992381Y-89740533D01*
X146992381Y-89740533D02*
X146992381Y-89645295D01*
X146992381Y-89645295D02*
X147040000Y-89550057D01*
X147040000Y-89550057D02*
X147087619Y-89502438D01*
X147087619Y-89502438D02*
X147182857Y-89454819D01*
X147182857Y-89454819D02*
X147420952Y-89454819D01*
X147420952Y-89454819D02*
X147563809Y-89502438D01*
X148516190Y-90454819D02*
X147944762Y-90454819D01*
X148230476Y-90454819D02*
X148230476Y-89454819D01*
X148230476Y-89454819D02*
X148135238Y-89597676D01*
X148135238Y-89597676D02*
X148040000Y-89692914D01*
X148040000Y-89692914D02*
X147944762Y-89740533D01*
X149468571Y-90454819D02*
X148897143Y-90454819D01*
X149182857Y-90454819D02*
X149182857Y-89454819D01*
X149182857Y-89454819D02*
X149087619Y-89597676D01*
X149087619Y-89597676D02*
X148992381Y-89692914D01*
X148992381Y-89692914D02*
X148897143Y-89740533D01*
X150420952Y-90454819D02*
X149849524Y-90454819D01*
X150135238Y-90454819D02*
X150135238Y-89454819D01*
X150135238Y-89454819D02*
X150040000Y-89597676D01*
X150040000Y-89597676D02*
X149944762Y-89692914D01*
X149944762Y-89692914D02*
X149849524Y-89740533D01*
X151325714Y-89454819D02*
X150849524Y-89454819D01*
X150849524Y-89454819D02*
X150801905Y-89931009D01*
X150801905Y-89931009D02*
X150849524Y-89883390D01*
X150849524Y-89883390D02*
X150944762Y-89835771D01*
X150944762Y-89835771D02*
X151182857Y-89835771D01*
X151182857Y-89835771D02*
X151278095Y-89883390D01*
X151278095Y-89883390D02*
X151325714Y-89931009D01*
X151325714Y-89931009D02*
X151373333Y-90026247D01*
X151373333Y-90026247D02*
X151373333Y-90264342D01*
X151373333Y-90264342D02*
X151325714Y-90359580D01*
X151325714Y-90359580D02*
X151278095Y-90407200D01*
X151278095Y-90407200D02*
X151182857Y-90454819D01*
X151182857Y-90454819D02*
X150944762Y-90454819D01*
X150944762Y-90454819D02*
X150849524Y-90407200D01*
X150849524Y-90407200D02*
X150801905Y-90359580D01*
X151563810Y-90550057D02*
X152325714Y-90550057D01*
X152516191Y-90169104D02*
X152992381Y-90169104D01*
X152420953Y-90454819D02*
X152754286Y-89454819D01*
X152754286Y-89454819D02*
X153087619Y-90454819D01*
X153944762Y-90454819D02*
X153373334Y-90454819D01*
X153659048Y-90454819D02*
X153659048Y-89454819D01*
X153659048Y-89454819D02*
X153563810Y-89597676D01*
X153563810Y-89597676D02*
X153468572Y-89692914D01*
X153468572Y-89692914D02*
X153373334Y-89740533D01*
X115833333Y-100534819D02*
X115500000Y-100058628D01*
X115261905Y-100534819D02*
X115261905Y-99534819D01*
X115261905Y-99534819D02*
X115642857Y-99534819D01*
X115642857Y-99534819D02*
X115738095Y-99582438D01*
X115738095Y-99582438D02*
X115785714Y-99630057D01*
X115785714Y-99630057D02*
X115833333Y-99725295D01*
X115833333Y-99725295D02*
X115833333Y-99868152D01*
X115833333Y-99868152D02*
X115785714Y-99963390D01*
X115785714Y-99963390D02*
X115738095Y-100011009D01*
X115738095Y-100011009D02*
X115642857Y-100058628D01*
X115642857Y-100058628D02*
X115261905Y-100058628D01*
X116785714Y-100534819D02*
X116214286Y-100534819D01*
X116500000Y-100534819D02*
X116500000Y-99534819D01*
X116500000Y-99534819D02*
X116404762Y-99677676D01*
X116404762Y-99677676D02*
X116309524Y-99772914D01*
X116309524Y-99772914D02*
X116214286Y-99820533D01*
X142074819Y-111238094D02*
X141074819Y-111238094D01*
X141074819Y-111238094D02*
X141074819Y-110999999D01*
X141074819Y-110999999D02*
X141122438Y-110857142D01*
X141122438Y-110857142D02*
X141217676Y-110761904D01*
X141217676Y-110761904D02*
X141312914Y-110714285D01*
X141312914Y-110714285D02*
X141503390Y-110666666D01*
X141503390Y-110666666D02*
X141646247Y-110666666D01*
X141646247Y-110666666D02*
X141836723Y-110714285D01*
X141836723Y-110714285D02*
X141931961Y-110761904D01*
X141931961Y-110761904D02*
X142027200Y-110857142D01*
X142027200Y-110857142D02*
X142074819Y-110999999D01*
X142074819Y-110999999D02*
X142074819Y-111238094D01*
X141074819Y-109761904D02*
X141074819Y-110238094D01*
X141074819Y-110238094D02*
X141551009Y-110285713D01*
X141551009Y-110285713D02*
X141503390Y-110238094D01*
X141503390Y-110238094D02*
X141455771Y-110142856D01*
X141455771Y-110142856D02*
X141455771Y-109904761D01*
X141455771Y-109904761D02*
X141503390Y-109809523D01*
X141503390Y-109809523D02*
X141551009Y-109761904D01*
X141551009Y-109761904D02*
X141646247Y-109714285D01*
X141646247Y-109714285D02*
X141884342Y-109714285D01*
X141884342Y-109714285D02*
X141979580Y-109761904D01*
X141979580Y-109761904D02*
X142027200Y-109809523D01*
X142027200Y-109809523D02*
X142074819Y-109904761D01*
X142074819Y-109904761D02*
X142074819Y-110142856D01*
X142074819Y-110142856D02*
X142027200Y-110238094D01*
X142027200Y-110238094D02*
X141979580Y-110285713D01*
X141754819Y-106951904D02*
X140754819Y-106951904D01*
X141754819Y-106380476D02*
X141183390Y-106809047D01*
X140754819Y-106380476D02*
X141326247Y-106951904D01*
X183756905Y-53994819D02*
X183756905Y-52994819D01*
X183756905Y-52994819D02*
X183995000Y-52994819D01*
X183995000Y-52994819D02*
X184137857Y-53042438D01*
X184137857Y-53042438D02*
X184233095Y-53137676D01*
X184233095Y-53137676D02*
X184280714Y-53232914D01*
X184280714Y-53232914D02*
X184328333Y-53423390D01*
X184328333Y-53423390D02*
X184328333Y-53566247D01*
X184328333Y-53566247D02*
X184280714Y-53756723D01*
X184280714Y-53756723D02*
X184233095Y-53851961D01*
X184233095Y-53851961D02*
X184137857Y-53947200D01*
X184137857Y-53947200D02*
X183995000Y-53994819D01*
X183995000Y-53994819D02*
X183756905Y-53994819D01*
X184899762Y-53423390D02*
X184804524Y-53375771D01*
X184804524Y-53375771D02*
X184756905Y-53328152D01*
X184756905Y-53328152D02*
X184709286Y-53232914D01*
X184709286Y-53232914D02*
X184709286Y-53185295D01*
X184709286Y-53185295D02*
X184756905Y-53090057D01*
X184756905Y-53090057D02*
X184804524Y-53042438D01*
X184804524Y-53042438D02*
X184899762Y-52994819D01*
X184899762Y-52994819D02*
X185090238Y-52994819D01*
X185090238Y-52994819D02*
X185185476Y-53042438D01*
X185185476Y-53042438D02*
X185233095Y-53090057D01*
X185233095Y-53090057D02*
X185280714Y-53185295D01*
X185280714Y-53185295D02*
X185280714Y-53232914D01*
X185280714Y-53232914D02*
X185233095Y-53328152D01*
X185233095Y-53328152D02*
X185185476Y-53375771D01*
X185185476Y-53375771D02*
X185090238Y-53423390D01*
X185090238Y-53423390D02*
X184899762Y-53423390D01*
X184899762Y-53423390D02*
X184804524Y-53471009D01*
X184804524Y-53471009D02*
X184756905Y-53518628D01*
X184756905Y-53518628D02*
X184709286Y-53613866D01*
X184709286Y-53613866D02*
X184709286Y-53804342D01*
X184709286Y-53804342D02*
X184756905Y-53899580D01*
X184756905Y-53899580D02*
X184804524Y-53947200D01*
X184804524Y-53947200D02*
X184899762Y-53994819D01*
X184899762Y-53994819D02*
X185090238Y-53994819D01*
X185090238Y-53994819D02*
X185185476Y-53947200D01*
X185185476Y-53947200D02*
X185233095Y-53899580D01*
X185233095Y-53899580D02*
X185280714Y-53804342D01*
X185280714Y-53804342D02*
X185280714Y-53613866D01*
X185280714Y-53613866D02*
X185233095Y-53518628D01*
X185233095Y-53518628D02*
X185185476Y-53471009D01*
X185185476Y-53471009D02*
X185090238Y-53423390D01*
X158574819Y-111238094D02*
X157574819Y-111238094D01*
X157574819Y-111238094D02*
X157574819Y-110999999D01*
X157574819Y-110999999D02*
X157622438Y-110857142D01*
X157622438Y-110857142D02*
X157717676Y-110761904D01*
X157717676Y-110761904D02*
X157812914Y-110714285D01*
X157812914Y-110714285D02*
X158003390Y-110666666D01*
X158003390Y-110666666D02*
X158146247Y-110666666D01*
X158146247Y-110666666D02*
X158336723Y-110714285D01*
X158336723Y-110714285D02*
X158431961Y-110761904D01*
X158431961Y-110761904D02*
X158527200Y-110857142D01*
X158527200Y-110857142D02*
X158574819Y-110999999D01*
X158574819Y-110999999D02*
X158574819Y-111238094D01*
X158574819Y-110190475D02*
X158574819Y-109999999D01*
X158574819Y-109999999D02*
X158527200Y-109904761D01*
X158527200Y-109904761D02*
X158479580Y-109857142D01*
X158479580Y-109857142D02*
X158336723Y-109761904D01*
X158336723Y-109761904D02*
X158146247Y-109714285D01*
X158146247Y-109714285D02*
X157765295Y-109714285D01*
X157765295Y-109714285D02*
X157670057Y-109761904D01*
X157670057Y-109761904D02*
X157622438Y-109809523D01*
X157622438Y-109809523D02*
X157574819Y-109904761D01*
X157574819Y-109904761D02*
X157574819Y-110095237D01*
X157574819Y-110095237D02*
X157622438Y-110190475D01*
X157622438Y-110190475D02*
X157670057Y-110238094D01*
X157670057Y-110238094D02*
X157765295Y-110285713D01*
X157765295Y-110285713D02*
X158003390Y-110285713D01*
X158003390Y-110285713D02*
X158098628Y-110238094D01*
X158098628Y-110238094D02*
X158146247Y-110190475D01*
X158146247Y-110190475D02*
X158193866Y-110095237D01*
X158193866Y-110095237D02*
X158193866Y-109904761D01*
X158193866Y-109904761D02*
X158146247Y-109809523D01*
X158146247Y-109809523D02*
X158098628Y-109761904D01*
X158098628Y-109761904D02*
X158003390Y-109714285D01*
X158254819Y-106951904D02*
X157254819Y-106951904D01*
X158254819Y-106380476D02*
X157683390Y-106809047D01*
X157254819Y-106380476D02*
X157826247Y-106951904D01*
X127874819Y-75166666D02*
X127398628Y-75499999D01*
X127874819Y-75738094D02*
X126874819Y-75738094D01*
X126874819Y-75738094D02*
X126874819Y-75357142D01*
X126874819Y-75357142D02*
X126922438Y-75261904D01*
X126922438Y-75261904D02*
X126970057Y-75214285D01*
X126970057Y-75214285D02*
X127065295Y-75166666D01*
X127065295Y-75166666D02*
X127208152Y-75166666D01*
X127208152Y-75166666D02*
X127303390Y-75214285D01*
X127303390Y-75214285D02*
X127351009Y-75261904D01*
X127351009Y-75261904D02*
X127398628Y-75357142D01*
X127398628Y-75357142D02*
X127398628Y-75738094D01*
X127874819Y-74690475D02*
X127874819Y-74499999D01*
X127874819Y-74499999D02*
X127827200Y-74404761D01*
X127827200Y-74404761D02*
X127779580Y-74357142D01*
X127779580Y-74357142D02*
X127636723Y-74261904D01*
X127636723Y-74261904D02*
X127446247Y-74214285D01*
X127446247Y-74214285D02*
X127065295Y-74214285D01*
X127065295Y-74214285D02*
X126970057Y-74261904D01*
X126970057Y-74261904D02*
X126922438Y-74309523D01*
X126922438Y-74309523D02*
X126874819Y-74404761D01*
X126874819Y-74404761D02*
X126874819Y-74595237D01*
X126874819Y-74595237D02*
X126922438Y-74690475D01*
X126922438Y-74690475D02*
X126970057Y-74738094D01*
X126970057Y-74738094D02*
X127065295Y-74785713D01*
X127065295Y-74785713D02*
X127303390Y-74785713D01*
X127303390Y-74785713D02*
X127398628Y-74738094D01*
X127398628Y-74738094D02*
X127446247Y-74690475D01*
X127446247Y-74690475D02*
X127493866Y-74595237D01*
X127493866Y-74595237D02*
X127493866Y-74404761D01*
X127493866Y-74404761D02*
X127446247Y-74309523D01*
X127446247Y-74309523D02*
X127398628Y-74261904D01*
X127398628Y-74261904D02*
X127303390Y-74214285D01*
X157196666Y-127654819D02*
X157196666Y-128369104D01*
X157196666Y-128369104D02*
X157149047Y-128511961D01*
X157149047Y-128511961D02*
X157053809Y-128607200D01*
X157053809Y-128607200D02*
X156910952Y-128654819D01*
X156910952Y-128654819D02*
X156815714Y-128654819D01*
X158101428Y-127988152D02*
X158101428Y-128654819D01*
X157863333Y-127607200D02*
X157625238Y-128321485D01*
X157625238Y-128321485D02*
X158244285Y-128321485D01*
X177793333Y-58874819D02*
X177460000Y-58398628D01*
X177221905Y-58874819D02*
X177221905Y-57874819D01*
X177221905Y-57874819D02*
X177602857Y-57874819D01*
X177602857Y-57874819D02*
X177698095Y-57922438D01*
X177698095Y-57922438D02*
X177745714Y-57970057D01*
X177745714Y-57970057D02*
X177793333Y-58065295D01*
X177793333Y-58065295D02*
X177793333Y-58208152D01*
X177793333Y-58208152D02*
X177745714Y-58303390D01*
X177745714Y-58303390D02*
X177698095Y-58351009D01*
X177698095Y-58351009D02*
X177602857Y-58398628D01*
X177602857Y-58398628D02*
X177221905Y-58398628D01*
X178698095Y-57874819D02*
X178221905Y-57874819D01*
X178221905Y-57874819D02*
X178174286Y-58351009D01*
X178174286Y-58351009D02*
X178221905Y-58303390D01*
X178221905Y-58303390D02*
X178317143Y-58255771D01*
X178317143Y-58255771D02*
X178555238Y-58255771D01*
X178555238Y-58255771D02*
X178650476Y-58303390D01*
X178650476Y-58303390D02*
X178698095Y-58351009D01*
X178698095Y-58351009D02*
X178745714Y-58446247D01*
X178745714Y-58446247D02*
X178745714Y-58684342D01*
X178745714Y-58684342D02*
X178698095Y-58779580D01*
X178698095Y-58779580D02*
X178650476Y-58827200D01*
X178650476Y-58827200D02*
X178555238Y-58874819D01*
X178555238Y-58874819D02*
X178317143Y-58874819D01*
X178317143Y-58874819D02*
X178221905Y-58827200D01*
X178221905Y-58827200D02*
X178174286Y-58779580D01*
X97785714Y-124834819D02*
X97785714Y-123834819D01*
X97785714Y-123834819D02*
X98023809Y-123834819D01*
X98023809Y-123834819D02*
X98166666Y-123882438D01*
X98166666Y-123882438D02*
X98261904Y-123977676D01*
X98261904Y-123977676D02*
X98309523Y-124072914D01*
X98309523Y-124072914D02*
X98357142Y-124263390D01*
X98357142Y-124263390D02*
X98357142Y-124406247D01*
X98357142Y-124406247D02*
X98309523Y-124596723D01*
X98309523Y-124596723D02*
X98261904Y-124691961D01*
X98261904Y-124691961D02*
X98166666Y-124787200D01*
X98166666Y-124787200D02*
X98023809Y-124834819D01*
X98023809Y-124834819D02*
X97785714Y-124834819D01*
X99309523Y-124834819D02*
X98738095Y-124834819D01*
X99023809Y-124834819D02*
X99023809Y-123834819D01*
X99023809Y-123834819D02*
X98928571Y-123977676D01*
X98928571Y-123977676D02*
X98833333Y-124072914D01*
X98833333Y-124072914D02*
X98738095Y-124120533D01*
X100261904Y-124834819D02*
X99690476Y-124834819D01*
X99976190Y-124834819D02*
X99976190Y-123834819D01*
X99976190Y-123834819D02*
X99880952Y-123977676D01*
X99880952Y-123977676D02*
X99785714Y-124072914D01*
X99785714Y-124072914D02*
X99690476Y-124120533D01*
X94928095Y-125154819D02*
X94928095Y-124154819D01*
X95499523Y-125154819D02*
X95070952Y-124583390D01*
X95499523Y-124154819D02*
X94928095Y-124726247D01*
X183280714Y-62494819D02*
X183280714Y-61494819D01*
X183280714Y-61494819D02*
X183518809Y-61494819D01*
X183518809Y-61494819D02*
X183661666Y-61542438D01*
X183661666Y-61542438D02*
X183756904Y-61637676D01*
X183756904Y-61637676D02*
X183804523Y-61732914D01*
X183804523Y-61732914D02*
X183852142Y-61923390D01*
X183852142Y-61923390D02*
X183852142Y-62066247D01*
X183852142Y-62066247D02*
X183804523Y-62256723D01*
X183804523Y-62256723D02*
X183756904Y-62351961D01*
X183756904Y-62351961D02*
X183661666Y-62447200D01*
X183661666Y-62447200D02*
X183518809Y-62494819D01*
X183518809Y-62494819D02*
X183280714Y-62494819D01*
X184804523Y-62494819D02*
X184233095Y-62494819D01*
X184518809Y-62494819D02*
X184518809Y-61494819D01*
X184518809Y-61494819D02*
X184423571Y-61637676D01*
X184423571Y-61637676D02*
X184328333Y-61732914D01*
X184328333Y-61732914D02*
X184233095Y-61780533D01*
X185423571Y-61494819D02*
X185518809Y-61494819D01*
X185518809Y-61494819D02*
X185614047Y-61542438D01*
X185614047Y-61542438D02*
X185661666Y-61590057D01*
X185661666Y-61590057D02*
X185709285Y-61685295D01*
X185709285Y-61685295D02*
X185756904Y-61875771D01*
X185756904Y-61875771D02*
X185756904Y-62113866D01*
X185756904Y-62113866D02*
X185709285Y-62304342D01*
X185709285Y-62304342D02*
X185661666Y-62399580D01*
X185661666Y-62399580D02*
X185614047Y-62447200D01*
X185614047Y-62447200D02*
X185518809Y-62494819D01*
X185518809Y-62494819D02*
X185423571Y-62494819D01*
X185423571Y-62494819D02*
X185328333Y-62447200D01*
X185328333Y-62447200D02*
X185280714Y-62399580D01*
X185280714Y-62399580D02*
X185233095Y-62304342D01*
X185233095Y-62304342D02*
X185185476Y-62113866D01*
X185185476Y-62113866D02*
X185185476Y-61875771D01*
X185185476Y-61875771D02*
X185233095Y-61685295D01*
X185233095Y-61685295D02*
X185280714Y-61590057D01*
X185280714Y-61590057D02*
X185328333Y-61542438D01*
X185328333Y-61542438D02*
X185423571Y-61494819D01*
X146574819Y-111238094D02*
X145574819Y-111238094D01*
X145574819Y-111238094D02*
X145574819Y-110999999D01*
X145574819Y-110999999D02*
X145622438Y-110857142D01*
X145622438Y-110857142D02*
X145717676Y-110761904D01*
X145717676Y-110761904D02*
X145812914Y-110714285D01*
X145812914Y-110714285D02*
X146003390Y-110666666D01*
X146003390Y-110666666D02*
X146146247Y-110666666D01*
X146146247Y-110666666D02*
X146336723Y-110714285D01*
X146336723Y-110714285D02*
X146431961Y-110761904D01*
X146431961Y-110761904D02*
X146527200Y-110857142D01*
X146527200Y-110857142D02*
X146574819Y-110999999D01*
X146574819Y-110999999D02*
X146574819Y-111238094D01*
X145574819Y-109809523D02*
X145574819Y-109999999D01*
X145574819Y-109999999D02*
X145622438Y-110095237D01*
X145622438Y-110095237D02*
X145670057Y-110142856D01*
X145670057Y-110142856D02*
X145812914Y-110238094D01*
X145812914Y-110238094D02*
X146003390Y-110285713D01*
X146003390Y-110285713D02*
X146384342Y-110285713D01*
X146384342Y-110285713D02*
X146479580Y-110238094D01*
X146479580Y-110238094D02*
X146527200Y-110190475D01*
X146527200Y-110190475D02*
X146574819Y-110095237D01*
X146574819Y-110095237D02*
X146574819Y-109904761D01*
X146574819Y-109904761D02*
X146527200Y-109809523D01*
X146527200Y-109809523D02*
X146479580Y-109761904D01*
X146479580Y-109761904D02*
X146384342Y-109714285D01*
X146384342Y-109714285D02*
X146146247Y-109714285D01*
X146146247Y-109714285D02*
X146051009Y-109761904D01*
X146051009Y-109761904D02*
X146003390Y-109809523D01*
X146003390Y-109809523D02*
X145955771Y-109904761D01*
X145955771Y-109904761D02*
X145955771Y-110095237D01*
X145955771Y-110095237D02*
X146003390Y-110190475D01*
X146003390Y-110190475D02*
X146051009Y-110238094D01*
X146051009Y-110238094D02*
X146146247Y-110285713D01*
X146254819Y-106951904D02*
X145254819Y-106951904D01*
X146254819Y-106380476D02*
X145683390Y-106809047D01*
X145254819Y-106380476D02*
X145826247Y-106951904D01*
X137859580Y-103666666D02*
X137907200Y-103714285D01*
X137907200Y-103714285D02*
X137954819Y-103857142D01*
X137954819Y-103857142D02*
X137954819Y-103952380D01*
X137954819Y-103952380D02*
X137907200Y-104095237D01*
X137907200Y-104095237D02*
X137811961Y-104190475D01*
X137811961Y-104190475D02*
X137716723Y-104238094D01*
X137716723Y-104238094D02*
X137526247Y-104285713D01*
X137526247Y-104285713D02*
X137383390Y-104285713D01*
X137383390Y-104285713D02*
X137192914Y-104238094D01*
X137192914Y-104238094D02*
X137097676Y-104190475D01*
X137097676Y-104190475D02*
X137002438Y-104095237D01*
X137002438Y-104095237D02*
X136954819Y-103952380D01*
X136954819Y-103952380D02*
X136954819Y-103857142D01*
X136954819Y-103857142D02*
X137002438Y-103714285D01*
X137002438Y-103714285D02*
X137050057Y-103666666D01*
X136954819Y-103333332D02*
X136954819Y-102714285D01*
X136954819Y-102714285D02*
X137335771Y-103047618D01*
X137335771Y-103047618D02*
X137335771Y-102904761D01*
X137335771Y-102904761D02*
X137383390Y-102809523D01*
X137383390Y-102809523D02*
X137431009Y-102761904D01*
X137431009Y-102761904D02*
X137526247Y-102714285D01*
X137526247Y-102714285D02*
X137764342Y-102714285D01*
X137764342Y-102714285D02*
X137859580Y-102761904D01*
X137859580Y-102761904D02*
X137907200Y-102809523D01*
X137907200Y-102809523D02*
X137954819Y-102904761D01*
X137954819Y-102904761D02*
X137954819Y-103190475D01*
X137954819Y-103190475D02*
X137907200Y-103285713D01*
X137907200Y-103285713D02*
X137859580Y-103333332D01*
X154074819Y-111238094D02*
X153074819Y-111238094D01*
X153074819Y-111238094D02*
X153074819Y-110999999D01*
X153074819Y-110999999D02*
X153122438Y-110857142D01*
X153122438Y-110857142D02*
X153217676Y-110761904D01*
X153217676Y-110761904D02*
X153312914Y-110714285D01*
X153312914Y-110714285D02*
X153503390Y-110666666D01*
X153503390Y-110666666D02*
X153646247Y-110666666D01*
X153646247Y-110666666D02*
X153836723Y-110714285D01*
X153836723Y-110714285D02*
X153931961Y-110761904D01*
X153931961Y-110761904D02*
X154027200Y-110857142D01*
X154027200Y-110857142D02*
X154074819Y-110999999D01*
X154074819Y-110999999D02*
X154074819Y-111238094D01*
X153074819Y-110333332D02*
X153074819Y-109666666D01*
X153074819Y-109666666D02*
X154074819Y-110095237D01*
X153754819Y-106951904D02*
X152754819Y-106951904D01*
X153754819Y-106380476D02*
X153183390Y-106809047D01*
X152754819Y-106380476D02*
X153326247Y-106951904D01*
X120574819Y-111048094D02*
X119574819Y-111048094D01*
X119574819Y-111048094D02*
X119574819Y-110809999D01*
X119574819Y-110809999D02*
X119622438Y-110667142D01*
X119622438Y-110667142D02*
X119717676Y-110571904D01*
X119717676Y-110571904D02*
X119812914Y-110524285D01*
X119812914Y-110524285D02*
X120003390Y-110476666D01*
X120003390Y-110476666D02*
X120146247Y-110476666D01*
X120146247Y-110476666D02*
X120336723Y-110524285D01*
X120336723Y-110524285D02*
X120431961Y-110571904D01*
X120431961Y-110571904D02*
X120527200Y-110667142D01*
X120527200Y-110667142D02*
X120574819Y-110809999D01*
X120574819Y-110809999D02*
X120574819Y-111048094D01*
X119670057Y-110095713D02*
X119622438Y-110048094D01*
X119622438Y-110048094D02*
X119574819Y-109952856D01*
X119574819Y-109952856D02*
X119574819Y-109714761D01*
X119574819Y-109714761D02*
X119622438Y-109619523D01*
X119622438Y-109619523D02*
X119670057Y-109571904D01*
X119670057Y-109571904D02*
X119765295Y-109524285D01*
X119765295Y-109524285D02*
X119860533Y-109524285D01*
X119860533Y-109524285D02*
X120003390Y-109571904D01*
X120003390Y-109571904D02*
X120574819Y-110143332D01*
X120574819Y-110143332D02*
X120574819Y-109524285D01*
X120254819Y-106761904D02*
X119254819Y-106761904D01*
X120254819Y-106190476D02*
X119683390Y-106619047D01*
X119254819Y-106190476D02*
X119826247Y-106761904D01*
X116196666Y-127654819D02*
X116196666Y-128369104D01*
X116196666Y-128369104D02*
X116149047Y-128511961D01*
X116149047Y-128511961D02*
X116053809Y-128607200D01*
X116053809Y-128607200D02*
X115910952Y-128654819D01*
X115910952Y-128654819D02*
X115815714Y-128654819D01*
X117196666Y-128654819D02*
X116625238Y-128654819D01*
X116910952Y-128654819D02*
X116910952Y-127654819D01*
X116910952Y-127654819D02*
X116815714Y-127797676D01*
X116815714Y-127797676D02*
X116720476Y-127892914D01*
X116720476Y-127892914D02*
X116625238Y-127940533D01*
X183196666Y-127654819D02*
X183196666Y-128369104D01*
X183196666Y-128369104D02*
X183149047Y-128511961D01*
X183149047Y-128511961D02*
X183053809Y-128607200D01*
X183053809Y-128607200D02*
X182910952Y-128654819D01*
X182910952Y-128654819D02*
X182815714Y-128654819D01*
X184149047Y-127654819D02*
X183672857Y-127654819D01*
X183672857Y-127654819D02*
X183625238Y-128131009D01*
X183625238Y-128131009D02*
X183672857Y-128083390D01*
X183672857Y-128083390D02*
X183768095Y-128035771D01*
X183768095Y-128035771D02*
X184006190Y-128035771D01*
X184006190Y-128035771D02*
X184101428Y-128083390D01*
X184101428Y-128083390D02*
X184149047Y-128131009D01*
X184149047Y-128131009D02*
X184196666Y-128226247D01*
X184196666Y-128226247D02*
X184196666Y-128464342D01*
X184196666Y-128464342D02*
X184149047Y-128559580D01*
X184149047Y-128559580D02*
X184101428Y-128607200D01*
X184101428Y-128607200D02*
X184006190Y-128654819D01*
X184006190Y-128654819D02*
X183768095Y-128654819D01*
X183768095Y-128654819D02*
X183672857Y-128607200D01*
X183672857Y-128607200D02*
X183625238Y-128559580D01*
X141873333Y-100534819D02*
X141540000Y-100058628D01*
X141301905Y-100534819D02*
X141301905Y-99534819D01*
X141301905Y-99534819D02*
X141682857Y-99534819D01*
X141682857Y-99534819D02*
X141778095Y-99582438D01*
X141778095Y-99582438D02*
X141825714Y-99630057D01*
X141825714Y-99630057D02*
X141873333Y-99725295D01*
X141873333Y-99725295D02*
X141873333Y-99868152D01*
X141873333Y-99868152D02*
X141825714Y-99963390D01*
X141825714Y-99963390D02*
X141778095Y-100011009D01*
X141778095Y-100011009D02*
X141682857Y-100058628D01*
X141682857Y-100058628D02*
X141301905Y-100058628D01*
X142206667Y-99534819D02*
X142825714Y-99534819D01*
X142825714Y-99534819D02*
X142492381Y-99915771D01*
X142492381Y-99915771D02*
X142635238Y-99915771D01*
X142635238Y-99915771D02*
X142730476Y-99963390D01*
X142730476Y-99963390D02*
X142778095Y-100011009D01*
X142778095Y-100011009D02*
X142825714Y-100106247D01*
X142825714Y-100106247D02*
X142825714Y-100344342D01*
X142825714Y-100344342D02*
X142778095Y-100439580D01*
X142778095Y-100439580D02*
X142730476Y-100487200D01*
X142730476Y-100487200D02*
X142635238Y-100534819D01*
X142635238Y-100534819D02*
X142349524Y-100534819D01*
X142349524Y-100534819D02*
X142254286Y-100487200D01*
X142254286Y-100487200D02*
X142206667Y-100439580D01*
X143696666Y-127654819D02*
X143696666Y-128369104D01*
X143696666Y-128369104D02*
X143649047Y-128511961D01*
X143649047Y-128511961D02*
X143553809Y-128607200D01*
X143553809Y-128607200D02*
X143410952Y-128654819D01*
X143410952Y-128654819D02*
X143315714Y-128654819D01*
X144077619Y-127654819D02*
X144696666Y-127654819D01*
X144696666Y-127654819D02*
X144363333Y-128035771D01*
X144363333Y-128035771D02*
X144506190Y-128035771D01*
X144506190Y-128035771D02*
X144601428Y-128083390D01*
X144601428Y-128083390D02*
X144649047Y-128131009D01*
X144649047Y-128131009D02*
X144696666Y-128226247D01*
X144696666Y-128226247D02*
X144696666Y-128464342D01*
X144696666Y-128464342D02*
X144649047Y-128559580D01*
X144649047Y-128559580D02*
X144601428Y-128607200D01*
X144601428Y-128607200D02*
X144506190Y-128654819D01*
X144506190Y-128654819D02*
X144220476Y-128654819D01*
X144220476Y-128654819D02*
X144125238Y-128607200D01*
X144125238Y-128607200D02*
X144077619Y-128559580D01*
X111874819Y-75166666D02*
X111398628Y-75499999D01*
X111874819Y-75738094D02*
X110874819Y-75738094D01*
X110874819Y-75738094D02*
X110874819Y-75357142D01*
X110874819Y-75357142D02*
X110922438Y-75261904D01*
X110922438Y-75261904D02*
X110970057Y-75214285D01*
X110970057Y-75214285D02*
X111065295Y-75166666D01*
X111065295Y-75166666D02*
X111208152Y-75166666D01*
X111208152Y-75166666D02*
X111303390Y-75214285D01*
X111303390Y-75214285D02*
X111351009Y-75261904D01*
X111351009Y-75261904D02*
X111398628Y-75357142D01*
X111398628Y-75357142D02*
X111398628Y-75738094D01*
X110874819Y-74833332D02*
X110874819Y-74166666D01*
X110874819Y-74166666D02*
X111874819Y-74595237D01*
X131874819Y-75642857D02*
X131398628Y-75976190D01*
X131874819Y-76214285D02*
X130874819Y-76214285D01*
X130874819Y-76214285D02*
X130874819Y-75833333D01*
X130874819Y-75833333D02*
X130922438Y-75738095D01*
X130922438Y-75738095D02*
X130970057Y-75690476D01*
X130970057Y-75690476D02*
X131065295Y-75642857D01*
X131065295Y-75642857D02*
X131208152Y-75642857D01*
X131208152Y-75642857D02*
X131303390Y-75690476D01*
X131303390Y-75690476D02*
X131351009Y-75738095D01*
X131351009Y-75738095D02*
X131398628Y-75833333D01*
X131398628Y-75833333D02*
X131398628Y-76214285D01*
X131874819Y-74690476D02*
X131874819Y-75261904D01*
X131874819Y-74976190D02*
X130874819Y-74976190D01*
X130874819Y-74976190D02*
X131017676Y-75071428D01*
X131017676Y-75071428D02*
X131112914Y-75166666D01*
X131112914Y-75166666D02*
X131160533Y-75261904D01*
X130874819Y-74071428D02*
X130874819Y-73976190D01*
X130874819Y-73976190D02*
X130922438Y-73880952D01*
X130922438Y-73880952D02*
X130970057Y-73833333D01*
X130970057Y-73833333D02*
X131065295Y-73785714D01*
X131065295Y-73785714D02*
X131255771Y-73738095D01*
X131255771Y-73738095D02*
X131493866Y-73738095D01*
X131493866Y-73738095D02*
X131684342Y-73785714D01*
X131684342Y-73785714D02*
X131779580Y-73833333D01*
X131779580Y-73833333D02*
X131827200Y-73880952D01*
X131827200Y-73880952D02*
X131874819Y-73976190D01*
X131874819Y-73976190D02*
X131874819Y-74071428D01*
X131874819Y-74071428D02*
X131827200Y-74166666D01*
X131827200Y-74166666D02*
X131779580Y-74214285D01*
X131779580Y-74214285D02*
X131684342Y-74261904D01*
X131684342Y-74261904D02*
X131493866Y-74309523D01*
X131493866Y-74309523D02*
X131255771Y-74309523D01*
X131255771Y-74309523D02*
X131065295Y-74261904D01*
X131065295Y-74261904D02*
X130970057Y-74214285D01*
X130970057Y-74214285D02*
X130922438Y-74166666D01*
X130922438Y-74166666D02*
X130874819Y-74071428D01*
X111909580Y-103666666D02*
X111957200Y-103714285D01*
X111957200Y-103714285D02*
X112004819Y-103857142D01*
X112004819Y-103857142D02*
X112004819Y-103952380D01*
X112004819Y-103952380D02*
X111957200Y-104095237D01*
X111957200Y-104095237D02*
X111861961Y-104190475D01*
X111861961Y-104190475D02*
X111766723Y-104238094D01*
X111766723Y-104238094D02*
X111576247Y-104285713D01*
X111576247Y-104285713D02*
X111433390Y-104285713D01*
X111433390Y-104285713D02*
X111242914Y-104238094D01*
X111242914Y-104238094D02*
X111147676Y-104190475D01*
X111147676Y-104190475D02*
X111052438Y-104095237D01*
X111052438Y-104095237D02*
X111004819Y-103952380D01*
X111004819Y-103952380D02*
X111004819Y-103857142D01*
X111004819Y-103857142D02*
X111052438Y-103714285D01*
X111052438Y-103714285D02*
X111100057Y-103666666D01*
X112004819Y-102714285D02*
X112004819Y-103285713D01*
X112004819Y-102999999D02*
X111004819Y-102999999D01*
X111004819Y-102999999D02*
X111147676Y-103095237D01*
X111147676Y-103095237D02*
X111242914Y-103190475D01*
X111242914Y-103190475D02*
X111290533Y-103285713D01*
X115874819Y-75166666D02*
X115398628Y-75499999D01*
X115874819Y-75738094D02*
X114874819Y-75738094D01*
X114874819Y-75738094D02*
X114874819Y-75357142D01*
X114874819Y-75357142D02*
X114922438Y-75261904D01*
X114922438Y-75261904D02*
X114970057Y-75214285D01*
X114970057Y-75214285D02*
X115065295Y-75166666D01*
X115065295Y-75166666D02*
X115208152Y-75166666D01*
X115208152Y-75166666D02*
X115303390Y-75214285D01*
X115303390Y-75214285D02*
X115351009Y-75261904D01*
X115351009Y-75261904D02*
X115398628Y-75357142D01*
X115398628Y-75357142D02*
X115398628Y-75738094D01*
X115303390Y-74595237D02*
X115255771Y-74690475D01*
X115255771Y-74690475D02*
X115208152Y-74738094D01*
X115208152Y-74738094D02*
X115112914Y-74785713D01*
X115112914Y-74785713D02*
X115065295Y-74785713D01*
X115065295Y-74785713D02*
X114970057Y-74738094D01*
X114970057Y-74738094D02*
X114922438Y-74690475D01*
X114922438Y-74690475D02*
X114874819Y-74595237D01*
X114874819Y-74595237D02*
X114874819Y-74404761D01*
X114874819Y-74404761D02*
X114922438Y-74309523D01*
X114922438Y-74309523D02*
X114970057Y-74261904D01*
X114970057Y-74261904D02*
X115065295Y-74214285D01*
X115065295Y-74214285D02*
X115112914Y-74214285D01*
X115112914Y-74214285D02*
X115208152Y-74261904D01*
X115208152Y-74261904D02*
X115255771Y-74309523D01*
X115255771Y-74309523D02*
X115303390Y-74404761D01*
X115303390Y-74404761D02*
X115303390Y-74595237D01*
X115303390Y-74595237D02*
X115351009Y-74690475D01*
X115351009Y-74690475D02*
X115398628Y-74738094D01*
X115398628Y-74738094D02*
X115493866Y-74785713D01*
X115493866Y-74785713D02*
X115684342Y-74785713D01*
X115684342Y-74785713D02*
X115779580Y-74738094D01*
X115779580Y-74738094D02*
X115827200Y-74690475D01*
X115827200Y-74690475D02*
X115874819Y-74595237D01*
X115874819Y-74595237D02*
X115874819Y-74404761D01*
X115874819Y-74404761D02*
X115827200Y-74309523D01*
X115827200Y-74309523D02*
X115779580Y-74261904D01*
X115779580Y-74261904D02*
X115684342Y-74214285D01*
X115684342Y-74214285D02*
X115493866Y-74214285D01*
X115493866Y-74214285D02*
X115398628Y-74261904D01*
X115398628Y-74261904D02*
X115351009Y-74309523D01*
X115351009Y-74309523D02*
X115303390Y-74404761D01*
X177833333Y-67374819D02*
X177500000Y-66898628D01*
X177261905Y-67374819D02*
X177261905Y-66374819D01*
X177261905Y-66374819D02*
X177642857Y-66374819D01*
X177642857Y-66374819D02*
X177738095Y-66422438D01*
X177738095Y-66422438D02*
X177785714Y-66470057D01*
X177785714Y-66470057D02*
X177833333Y-66565295D01*
X177833333Y-66565295D02*
X177833333Y-66708152D01*
X177833333Y-66708152D02*
X177785714Y-66803390D01*
X177785714Y-66803390D02*
X177738095Y-66851009D01*
X177738095Y-66851009D02*
X177642857Y-66898628D01*
X177642857Y-66898628D02*
X177261905Y-66898628D01*
X178690476Y-66374819D02*
X178500000Y-66374819D01*
X178500000Y-66374819D02*
X178404762Y-66422438D01*
X178404762Y-66422438D02*
X178357143Y-66470057D01*
X178357143Y-66470057D02*
X178261905Y-66612914D01*
X178261905Y-66612914D02*
X178214286Y-66803390D01*
X178214286Y-66803390D02*
X178214286Y-67184342D01*
X178214286Y-67184342D02*
X178261905Y-67279580D01*
X178261905Y-67279580D02*
X178309524Y-67327200D01*
X178309524Y-67327200D02*
X178404762Y-67374819D01*
X178404762Y-67374819D02*
X178595238Y-67374819D01*
X178595238Y-67374819D02*
X178690476Y-67327200D01*
X178690476Y-67327200D02*
X178738095Y-67279580D01*
X178738095Y-67279580D02*
X178785714Y-67184342D01*
X178785714Y-67184342D02*
X178785714Y-66946247D01*
X178785714Y-66946247D02*
X178738095Y-66851009D01*
X178738095Y-66851009D02*
X178690476Y-66803390D01*
X178690476Y-66803390D02*
X178595238Y-66755771D01*
X178595238Y-66755771D02*
X178404762Y-66755771D01*
X178404762Y-66755771D02*
X178309524Y-66803390D01*
X178309524Y-66803390D02*
X178261905Y-66851009D01*
X178261905Y-66851009D02*
X178214286Y-66946247D01*
X187864819Y-82238094D02*
X186864819Y-82238094D01*
X186864819Y-82238094D02*
X186864819Y-81857142D01*
X186864819Y-81857142D02*
X186912438Y-81761904D01*
X186912438Y-81761904D02*
X186960057Y-81714285D01*
X186960057Y-81714285D02*
X187055295Y-81666666D01*
X187055295Y-81666666D02*
X187198152Y-81666666D01*
X187198152Y-81666666D02*
X187293390Y-81714285D01*
X187293390Y-81714285D02*
X187341009Y-81761904D01*
X187341009Y-81761904D02*
X187388628Y-81857142D01*
X187388628Y-81857142D02*
X187388628Y-82238094D01*
X187769580Y-80666666D02*
X187817200Y-80714285D01*
X187817200Y-80714285D02*
X187864819Y-80857142D01*
X187864819Y-80857142D02*
X187864819Y-80952380D01*
X187864819Y-80952380D02*
X187817200Y-81095237D01*
X187817200Y-81095237D02*
X187721961Y-81190475D01*
X187721961Y-81190475D02*
X187626723Y-81238094D01*
X187626723Y-81238094D02*
X187436247Y-81285713D01*
X187436247Y-81285713D02*
X187293390Y-81285713D01*
X187293390Y-81285713D02*
X187102914Y-81238094D01*
X187102914Y-81238094D02*
X187007676Y-81190475D01*
X187007676Y-81190475D02*
X186912438Y-81095237D01*
X186912438Y-81095237D02*
X186864819Y-80952380D01*
X186864819Y-80952380D02*
X186864819Y-80857142D01*
X186864819Y-80857142D02*
X186912438Y-80714285D01*
X186912438Y-80714285D02*
X186960057Y-80666666D01*
X187864819Y-80238094D02*
X186864819Y-80238094D01*
X186864819Y-80238094D02*
X187579104Y-79904761D01*
X187579104Y-79904761D02*
X186864819Y-79571428D01*
X186864819Y-79571428D02*
X187864819Y-79571428D01*
X186864819Y-78619047D02*
X186864819Y-79095237D01*
X186864819Y-79095237D02*
X187341009Y-79142856D01*
X187341009Y-79142856D02*
X187293390Y-79095237D01*
X187293390Y-79095237D02*
X187245771Y-78999999D01*
X187245771Y-78999999D02*
X187245771Y-78761904D01*
X187245771Y-78761904D02*
X187293390Y-78666666D01*
X187293390Y-78666666D02*
X187341009Y-78619047D01*
X187341009Y-78619047D02*
X187436247Y-78571428D01*
X187436247Y-78571428D02*
X187674342Y-78571428D01*
X187674342Y-78571428D02*
X187769580Y-78619047D01*
X187769580Y-78619047D02*
X187817200Y-78666666D01*
X187817200Y-78666666D02*
X187864819Y-78761904D01*
X187864819Y-78761904D02*
X187864819Y-78999999D01*
X187864819Y-78999999D02*
X187817200Y-79095237D01*
X187817200Y-79095237D02*
X187769580Y-79142856D01*
X187864819Y-77619047D02*
X187864819Y-78190475D01*
X187864819Y-77904761D02*
X186864819Y-77904761D01*
X186864819Y-77904761D02*
X187007676Y-77999999D01*
X187007676Y-77999999D02*
X187102914Y-78095237D01*
X187102914Y-78095237D02*
X187150533Y-78190475D01*
X186864819Y-76999999D02*
X186864819Y-76904761D01*
X186864819Y-76904761D02*
X186912438Y-76809523D01*
X186912438Y-76809523D02*
X186960057Y-76761904D01*
X186960057Y-76761904D02*
X187055295Y-76714285D01*
X187055295Y-76714285D02*
X187245771Y-76666666D01*
X187245771Y-76666666D02*
X187483866Y-76666666D01*
X187483866Y-76666666D02*
X187674342Y-76714285D01*
X187674342Y-76714285D02*
X187769580Y-76761904D01*
X187769580Y-76761904D02*
X187817200Y-76809523D01*
X187817200Y-76809523D02*
X187864819Y-76904761D01*
X187864819Y-76904761D02*
X187864819Y-76999999D01*
X187864819Y-76999999D02*
X187817200Y-77095237D01*
X187817200Y-77095237D02*
X187769580Y-77142856D01*
X187769580Y-77142856D02*
X187674342Y-77190475D01*
X187674342Y-77190475D02*
X187483866Y-77238094D01*
X187483866Y-77238094D02*
X187245771Y-77238094D01*
X187245771Y-77238094D02*
X187055295Y-77190475D01*
X187055295Y-77190475D02*
X186960057Y-77142856D01*
X186960057Y-77142856D02*
X186912438Y-77095237D01*
X186912438Y-77095237D02*
X186864819Y-76999999D01*
X186960057Y-76285713D02*
X186912438Y-76238094D01*
X186912438Y-76238094D02*
X186864819Y-76142856D01*
X186864819Y-76142856D02*
X186864819Y-75904761D01*
X186864819Y-75904761D02*
X186912438Y-75809523D01*
X186912438Y-75809523D02*
X186960057Y-75761904D01*
X186960057Y-75761904D02*
X187055295Y-75714285D01*
X187055295Y-75714285D02*
X187150533Y-75714285D01*
X187150533Y-75714285D02*
X187293390Y-75761904D01*
X187293390Y-75761904D02*
X187864819Y-76333332D01*
X187864819Y-76333332D02*
X187864819Y-75714285D01*
X133574819Y-111048094D02*
X132574819Y-111048094D01*
X132574819Y-111048094D02*
X132574819Y-110809999D01*
X132574819Y-110809999D02*
X132622438Y-110667142D01*
X132622438Y-110667142D02*
X132717676Y-110571904D01*
X132717676Y-110571904D02*
X132812914Y-110524285D01*
X132812914Y-110524285D02*
X133003390Y-110476666D01*
X133003390Y-110476666D02*
X133146247Y-110476666D01*
X133146247Y-110476666D02*
X133336723Y-110524285D01*
X133336723Y-110524285D02*
X133431961Y-110571904D01*
X133431961Y-110571904D02*
X133527200Y-110667142D01*
X133527200Y-110667142D02*
X133574819Y-110809999D01*
X133574819Y-110809999D02*
X133574819Y-111048094D01*
X132908152Y-109619523D02*
X133574819Y-109619523D01*
X132527200Y-109857618D02*
X133241485Y-110095713D01*
X133241485Y-110095713D02*
X133241485Y-109476666D01*
X133254819Y-106761904D02*
X132254819Y-106761904D01*
X133254819Y-106190476D02*
X132683390Y-106619047D01*
X132254819Y-106190476D02*
X132826247Y-106761904D01*
X129074819Y-111048094D02*
X128074819Y-111048094D01*
X128074819Y-111048094D02*
X128074819Y-110809999D01*
X128074819Y-110809999D02*
X128122438Y-110667142D01*
X128122438Y-110667142D02*
X128217676Y-110571904D01*
X128217676Y-110571904D02*
X128312914Y-110524285D01*
X128312914Y-110524285D02*
X128503390Y-110476666D01*
X128503390Y-110476666D02*
X128646247Y-110476666D01*
X128646247Y-110476666D02*
X128836723Y-110524285D01*
X128836723Y-110524285D02*
X128931961Y-110571904D01*
X128931961Y-110571904D02*
X129027200Y-110667142D01*
X129027200Y-110667142D02*
X129074819Y-110809999D01*
X129074819Y-110809999D02*
X129074819Y-111048094D01*
X128074819Y-110143332D02*
X128074819Y-109524285D01*
X128074819Y-109524285D02*
X128455771Y-109857618D01*
X128455771Y-109857618D02*
X128455771Y-109714761D01*
X128455771Y-109714761D02*
X128503390Y-109619523D01*
X128503390Y-109619523D02*
X128551009Y-109571904D01*
X128551009Y-109571904D02*
X128646247Y-109524285D01*
X128646247Y-109524285D02*
X128884342Y-109524285D01*
X128884342Y-109524285D02*
X128979580Y-109571904D01*
X128979580Y-109571904D02*
X129027200Y-109619523D01*
X129027200Y-109619523D02*
X129074819Y-109714761D01*
X129074819Y-109714761D02*
X129074819Y-110000475D01*
X129074819Y-110000475D02*
X129027200Y-110095713D01*
X129027200Y-110095713D02*
X128979580Y-110143332D01*
X128754819Y-106761904D02*
X127754819Y-106761904D01*
X128754819Y-106190476D02*
X128183390Y-106619047D01*
X127754819Y-106190476D02*
X128326247Y-106761904D01*
X119404761Y-76610057D02*
X119309523Y-76562438D01*
X119309523Y-76562438D02*
X119214285Y-76467200D01*
X119214285Y-76467200D02*
X119071428Y-76324342D01*
X119071428Y-76324342D02*
X118976190Y-76276723D01*
X118976190Y-76276723D02*
X118880952Y-76276723D01*
X118928571Y-76514819D02*
X118833333Y-76467200D01*
X118833333Y-76467200D02*
X118738095Y-76371961D01*
X118738095Y-76371961D02*
X118690476Y-76181485D01*
X118690476Y-76181485D02*
X118690476Y-75848152D01*
X118690476Y-75848152D02*
X118738095Y-75657676D01*
X118738095Y-75657676D02*
X118833333Y-75562438D01*
X118833333Y-75562438D02*
X118928571Y-75514819D01*
X118928571Y-75514819D02*
X119119047Y-75514819D01*
X119119047Y-75514819D02*
X119214285Y-75562438D01*
X119214285Y-75562438D02*
X119309523Y-75657676D01*
X119309523Y-75657676D02*
X119357142Y-75848152D01*
X119357142Y-75848152D02*
X119357142Y-76181485D01*
X119357142Y-76181485D02*
X119309523Y-76371961D01*
X119309523Y-76371961D02*
X119214285Y-76467200D01*
X119214285Y-76467200D02*
X119119047Y-76514819D01*
X119119047Y-76514819D02*
X118928571Y-76514819D01*
X120309523Y-76514819D02*
X119738095Y-76514819D01*
X120023809Y-76514819D02*
X120023809Y-75514819D01*
X120023809Y-75514819D02*
X119928571Y-75657676D01*
X119928571Y-75657676D02*
X119833333Y-75752914D01*
X119833333Y-75752914D02*
X119738095Y-75800533D01*
X117409580Y-90166666D02*
X117457200Y-90214285D01*
X117457200Y-90214285D02*
X117504819Y-90357142D01*
X117504819Y-90357142D02*
X117504819Y-90452380D01*
X117504819Y-90452380D02*
X117457200Y-90595237D01*
X117457200Y-90595237D02*
X117361961Y-90690475D01*
X117361961Y-90690475D02*
X117266723Y-90738094D01*
X117266723Y-90738094D02*
X117076247Y-90785713D01*
X117076247Y-90785713D02*
X116933390Y-90785713D01*
X116933390Y-90785713D02*
X116742914Y-90738094D01*
X116742914Y-90738094D02*
X116647676Y-90690475D01*
X116647676Y-90690475D02*
X116552438Y-90595237D01*
X116552438Y-90595237D02*
X116504819Y-90452380D01*
X116504819Y-90452380D02*
X116504819Y-90357142D01*
X116504819Y-90357142D02*
X116552438Y-90214285D01*
X116552438Y-90214285D02*
X116600057Y-90166666D01*
X116504819Y-89261904D02*
X116504819Y-89738094D01*
X116504819Y-89738094D02*
X116981009Y-89785713D01*
X116981009Y-89785713D02*
X116933390Y-89738094D01*
X116933390Y-89738094D02*
X116885771Y-89642856D01*
X116885771Y-89642856D02*
X116885771Y-89404761D01*
X116885771Y-89404761D02*
X116933390Y-89309523D01*
X116933390Y-89309523D02*
X116981009Y-89261904D01*
X116981009Y-89261904D02*
X117076247Y-89214285D01*
X117076247Y-89214285D02*
X117314342Y-89214285D01*
X117314342Y-89214285D02*
X117409580Y-89261904D01*
X117409580Y-89261904D02*
X117457200Y-89309523D01*
X117457200Y-89309523D02*
X117504819Y-89404761D01*
X117504819Y-89404761D02*
X117504819Y-89642856D01*
X117504819Y-89642856D02*
X117457200Y-89738094D01*
X117457200Y-89738094D02*
X117409580Y-89785713D01*
X144103809Y-70169104D02*
X144579999Y-70169104D01*
X144008571Y-70454819D02*
X144341904Y-69454819D01*
X144341904Y-69454819D02*
X144675237Y-70454819D01*
X145008571Y-70454819D02*
X145008571Y-69454819D01*
X145008571Y-69454819D02*
X145246666Y-69454819D01*
X145246666Y-69454819D02*
X145389523Y-69502438D01*
X145389523Y-69502438D02*
X145484761Y-69597676D01*
X145484761Y-69597676D02*
X145532380Y-69692914D01*
X145532380Y-69692914D02*
X145579999Y-69883390D01*
X145579999Y-69883390D02*
X145579999Y-70026247D01*
X145579999Y-70026247D02*
X145532380Y-70216723D01*
X145532380Y-70216723D02*
X145484761Y-70311961D01*
X145484761Y-70311961D02*
X145389523Y-70407200D01*
X145389523Y-70407200D02*
X145246666Y-70454819D01*
X145246666Y-70454819D02*
X145008571Y-70454819D01*
X145960952Y-70407200D02*
X146103809Y-70454819D01*
X146103809Y-70454819D02*
X146341904Y-70454819D01*
X146341904Y-70454819D02*
X146437142Y-70407200D01*
X146437142Y-70407200D02*
X146484761Y-70359580D01*
X146484761Y-70359580D02*
X146532380Y-70264342D01*
X146532380Y-70264342D02*
X146532380Y-70169104D01*
X146532380Y-70169104D02*
X146484761Y-70073866D01*
X146484761Y-70073866D02*
X146437142Y-70026247D01*
X146437142Y-70026247D02*
X146341904Y-69978628D01*
X146341904Y-69978628D02*
X146151428Y-69931009D01*
X146151428Y-69931009D02*
X146056190Y-69883390D01*
X146056190Y-69883390D02*
X146008571Y-69835771D01*
X146008571Y-69835771D02*
X145960952Y-69740533D01*
X145960952Y-69740533D02*
X145960952Y-69645295D01*
X145960952Y-69645295D02*
X146008571Y-69550057D01*
X146008571Y-69550057D02*
X146056190Y-69502438D01*
X146056190Y-69502438D02*
X146151428Y-69454819D01*
X146151428Y-69454819D02*
X146389523Y-69454819D01*
X146389523Y-69454819D02*
X146532380Y-69502438D01*
X147484761Y-70454819D02*
X146913333Y-70454819D01*
X147199047Y-70454819D02*
X147199047Y-69454819D01*
X147199047Y-69454819D02*
X147103809Y-69597676D01*
X147103809Y-69597676D02*
X147008571Y-69692914D01*
X147008571Y-69692914D02*
X146913333Y-69740533D01*
X148437142Y-70454819D02*
X147865714Y-70454819D01*
X148151428Y-70454819D02*
X148151428Y-69454819D01*
X148151428Y-69454819D02*
X148056190Y-69597676D01*
X148056190Y-69597676D02*
X147960952Y-69692914D01*
X147960952Y-69692914D02*
X147865714Y-69740533D01*
X149389523Y-70454819D02*
X148818095Y-70454819D01*
X149103809Y-70454819D02*
X149103809Y-69454819D01*
X149103809Y-69454819D02*
X149008571Y-69597676D01*
X149008571Y-69597676D02*
X148913333Y-69692914D01*
X148913333Y-69692914D02*
X148818095Y-69740533D01*
X150294285Y-69454819D02*
X149818095Y-69454819D01*
X149818095Y-69454819D02*
X149770476Y-69931009D01*
X149770476Y-69931009D02*
X149818095Y-69883390D01*
X149818095Y-69883390D02*
X149913333Y-69835771D01*
X149913333Y-69835771D02*
X150151428Y-69835771D01*
X150151428Y-69835771D02*
X150246666Y-69883390D01*
X150246666Y-69883390D02*
X150294285Y-69931009D01*
X150294285Y-69931009D02*
X150341904Y-70026247D01*
X150341904Y-70026247D02*
X150341904Y-70264342D01*
X150341904Y-70264342D02*
X150294285Y-70359580D01*
X150294285Y-70359580D02*
X150246666Y-70407200D01*
X150246666Y-70407200D02*
X150151428Y-70454819D01*
X150151428Y-70454819D02*
X149913333Y-70454819D01*
X149913333Y-70454819D02*
X149818095Y-70407200D01*
X149818095Y-70407200D02*
X149770476Y-70359580D01*
X150532381Y-70550057D02*
X151294285Y-70550057D01*
X151865714Y-69931009D02*
X152008571Y-69978628D01*
X152008571Y-69978628D02*
X152056190Y-70026247D01*
X152056190Y-70026247D02*
X152103809Y-70121485D01*
X152103809Y-70121485D02*
X152103809Y-70264342D01*
X152103809Y-70264342D02*
X152056190Y-70359580D01*
X152056190Y-70359580D02*
X152008571Y-70407200D01*
X152008571Y-70407200D02*
X151913333Y-70454819D01*
X151913333Y-70454819D02*
X151532381Y-70454819D01*
X151532381Y-70454819D02*
X151532381Y-69454819D01*
X151532381Y-69454819D02*
X151865714Y-69454819D01*
X151865714Y-69454819D02*
X151960952Y-69502438D01*
X151960952Y-69502438D02*
X152008571Y-69550057D01*
X152008571Y-69550057D02*
X152056190Y-69645295D01*
X152056190Y-69645295D02*
X152056190Y-69740533D01*
X152056190Y-69740533D02*
X152008571Y-69835771D01*
X152008571Y-69835771D02*
X151960952Y-69883390D01*
X151960952Y-69883390D02*
X151865714Y-69931009D01*
X151865714Y-69931009D02*
X151532381Y-69931009D01*
X153056190Y-70454819D02*
X152484762Y-70454819D01*
X152770476Y-70454819D02*
X152770476Y-69454819D01*
X152770476Y-69454819D02*
X152675238Y-69597676D01*
X152675238Y-69597676D02*
X152580000Y-69692914D01*
X152580000Y-69692914D02*
X152484762Y-69740533D01*
D11*
%TO.C,C2*%
X120580000Y-101480000D02*
X120580000Y-105520000D01*
X121205000Y-101480000D02*
X120580000Y-101480000D01*
X121205000Y-105520000D02*
X120580000Y-105520000D01*
X123420000Y-101480000D02*
X122795000Y-101480000D01*
X123420000Y-101480000D02*
X123420000Y-105520000D01*
X123420000Y-105520000D02*
X122795000Y-105520000D01*
%TO.C,R4*%
X152580000Y-101080000D02*
X156420000Y-101080000D01*
X152580000Y-102920000D02*
X156420000Y-102920000D01*
%TO.C,R2*%
X127080000Y-101080000D02*
X130920000Y-101080000D01*
X127080000Y-102920000D02*
X130920000Y-102920000D01*
%TO.C,D1*%
X112380000Y-108190000D02*
X112380000Y-112430000D01*
X112380000Y-112430000D02*
X114620000Y-112430000D01*
X113500000Y-107540000D02*
X113500000Y-108190000D01*
X113500000Y-113080000D02*
X113500000Y-112430000D01*
X114620000Y-108190000D02*
X112380000Y-108190000D01*
X114620000Y-108790000D02*
X112380000Y-108790000D01*
X114620000Y-108910000D02*
X112380000Y-108910000D01*
X114620000Y-109030000D02*
X112380000Y-109030000D01*
X114620000Y-112430000D02*
X114620000Y-108190000D01*
%TO.C,J2*%
X121500000Y-116800000D02*
X125200000Y-116800000D01*
X121500000Y-127300000D02*
X121500000Y-116800000D01*
X121500000Y-127300000D02*
X125280000Y-127300000D01*
X126720000Y-127300000D02*
X130500000Y-127300000D01*
X126800000Y-116800000D02*
X130500000Y-116800000D01*
X127230000Y-130450000D02*
X126370000Y-130450000D01*
X127230000Y-130450000D02*
X127230000Y-129650000D01*
X130500000Y-127300000D02*
X130500000Y-116800000D01*
X127800000Y-122800000D02*
G75*
G02*
X124200000Y-122800000I-1800000J0D01*
G01*
X124200000Y-122800000D02*
G75*
G02*
X127800000Y-122800000I1800000J0D01*
G01*
%TO.C,C4*%
X146580000Y-101230000D02*
X146580000Y-105270000D01*
X147205000Y-101230000D02*
X146580000Y-101230000D01*
X147205000Y-105270000D02*
X146580000Y-105270000D01*
X149420000Y-101230000D02*
X148795000Y-101230000D01*
X149420000Y-101230000D02*
X149420000Y-105270000D01*
X149420000Y-105270000D02*
X148795000Y-105270000D01*
%TO.C,Q2*%
X121260000Y-80150000D02*
X117660000Y-80150000D01*
X117135817Y-80877205D02*
G75*
G02*
X117660001Y-80150001I2324183J-1122795D01*
G01*
X119460000Y-84600000D02*
G75*
G02*
X117103600Y-83098807I0J2600000D01*
G01*
X121259999Y-80150001D02*
G75*
G02*
X121784183Y-80877205I-1799999J-1849999D01*
G01*
X121816399Y-83098807D02*
G75*
G02*
X119460000Y-84599999I-2356399J1098807D01*
G01*
%TO.C,ADS1115_A1*%
X136970000Y-92170000D02*
X136970000Y-94830000D01*
X159890000Y-92170000D02*
X136970000Y-92170000D01*
X159890000Y-92170000D02*
X159890000Y-94830000D01*
X159890000Y-94830000D02*
X136970000Y-94830000D01*
X161160000Y-92170000D02*
X162490000Y-92170000D01*
X162490000Y-92170000D02*
X162490000Y-93500000D01*
%TO.C,R1*%
X114080000Y-101080000D02*
X117920000Y-101080000D01*
X114080000Y-102920000D02*
X117920000Y-102920000D01*
%TO.C,D5*%
X138380000Y-108380000D02*
X138380000Y-112620000D01*
X138380000Y-112620000D02*
X140620000Y-112620000D01*
X139500000Y-107730000D02*
X139500000Y-108380000D01*
X139500000Y-113270000D02*
X139500000Y-112620000D01*
X140620000Y-108380000D02*
X138380000Y-108380000D01*
X140620000Y-108980000D02*
X138380000Y-108980000D01*
X140620000Y-109100000D02*
X138380000Y-109100000D01*
X140620000Y-109220000D02*
X138380000Y-109220000D01*
X140620000Y-112620000D02*
X140620000Y-108380000D01*
%TO.C,D8*%
X182935000Y-55264000D02*
X182935000Y-55420000D01*
X182935000Y-57580000D02*
X182935000Y-57736000D01*
X182935001Y-55264485D02*
G75*
G02*
X186167334Y-55421392I1559999J-1235515D01*
G01*
X183454040Y-55420001D02*
G75*
G02*
X185536129Y-55420164I1040960J-1079999D01*
G01*
X185536129Y-57579836D02*
G75*
G02*
X183454040Y-57579999I-1041129J1079836D01*
G01*
X186167334Y-57578608D02*
G75*
G02*
X182935001Y-57735515I-1672334J1078608D01*
G01*
%TO.C,D9*%
X154880000Y-108380000D02*
X154880000Y-112620000D01*
X154880000Y-112620000D02*
X157120000Y-112620000D01*
X156000000Y-107730000D02*
X156000000Y-108380000D01*
X156000000Y-113270000D02*
X156000000Y-112620000D01*
X157120000Y-108380000D02*
X154880000Y-108380000D01*
X157120000Y-108980000D02*
X154880000Y-108980000D01*
X157120000Y-109100000D02*
X154880000Y-109100000D01*
X157120000Y-109220000D02*
X154880000Y-109220000D01*
X157120000Y-112620000D02*
X157120000Y-108380000D01*
%TO.C,RV3*%
X153979000Y-35880000D02*
X164020000Y-35880000D01*
X153979000Y-39816000D02*
X153979000Y-35880000D01*
X153979000Y-48120000D02*
X153979000Y-44183000D01*
X153979000Y-48120000D02*
X155300000Y-48120000D01*
X157750000Y-48120000D02*
X158130000Y-48120000D01*
X159871000Y-48120000D02*
X160630000Y-48120000D01*
X162370000Y-48120000D02*
X164020000Y-48120000D01*
X164020000Y-39816000D02*
X164020000Y-35880000D01*
X164020000Y-48120000D02*
X164020000Y-44183000D01*
%TO.C,R9*%
X124580000Y-73080000D02*
X124580000Y-76920000D01*
X126420000Y-73080000D02*
X126420000Y-76920000D01*
%TO.C,J4*%
X149000000Y-116800000D02*
X152700000Y-116800000D01*
X149000000Y-127300000D02*
X149000000Y-116800000D01*
X149000000Y-127300000D02*
X152780000Y-127300000D01*
X154220000Y-127300000D02*
X158000000Y-127300000D01*
X154300000Y-116800000D02*
X158000000Y-116800000D01*
X154730000Y-130450000D02*
X153870000Y-130450000D01*
X154730000Y-130450000D02*
X154730000Y-129650000D01*
X158000000Y-127300000D02*
X158000000Y-116800000D01*
X155300000Y-122800000D02*
G75*
G02*
X151700000Y-122800000I-1800000J0D01*
G01*
X151700000Y-122800000D02*
G75*
G02*
X155300000Y-122800000I1800000J0D01*
G01*
%TO.C,R5*%
X179880000Y-55580000D02*
X176040000Y-55580000D01*
X179880000Y-57420000D02*
X176040000Y-57420000D01*
%TO.C,D11*%
X96230000Y-126500000D02*
X96880000Y-126500000D01*
X96880000Y-125380000D02*
X96880000Y-127620000D01*
X96880000Y-127620000D02*
X101120000Y-127620000D01*
X97480000Y-125380000D02*
X97480000Y-127620000D01*
X97600000Y-125380000D02*
X97600000Y-127620000D01*
X97720000Y-125380000D02*
X97720000Y-127620000D01*
X101120000Y-125380000D02*
X96880000Y-125380000D01*
X101120000Y-127620000D02*
X101120000Y-125380000D01*
X101770000Y-126500000D02*
X101120000Y-126500000D01*
%TO.C,D10*%
X182935000Y-63764000D02*
X182935000Y-63920000D01*
X182935000Y-66080000D02*
X182935000Y-66236000D01*
X182935001Y-63764485D02*
G75*
G02*
X186167334Y-63921392I1559999J-1235515D01*
G01*
X183454040Y-63920001D02*
G75*
G02*
X185536129Y-63920164I1040960J-1079999D01*
G01*
X185536129Y-66079836D02*
G75*
G02*
X183454040Y-66079999I-1041129J1079836D01*
G01*
X186167334Y-66078608D02*
G75*
G02*
X182935001Y-66235515I-1672334J1078608D01*
G01*
%TO.C,D6*%
X142880000Y-108380000D02*
X142880000Y-112620000D01*
X142880000Y-112620000D02*
X145120000Y-112620000D01*
X144000000Y-107730000D02*
X144000000Y-108380000D01*
X144000000Y-113270000D02*
X144000000Y-112620000D01*
X145120000Y-108380000D02*
X142880000Y-108380000D01*
X145120000Y-108980000D02*
X142880000Y-108980000D01*
X145120000Y-109100000D02*
X142880000Y-109100000D01*
X145120000Y-109220000D02*
X142880000Y-109220000D01*
X145120000Y-112620000D02*
X145120000Y-108380000D01*
%TO.C,C3*%
X133580000Y-101480000D02*
X133580000Y-105520000D01*
X134205000Y-101480000D02*
X133580000Y-101480000D01*
X134205000Y-105520000D02*
X133580000Y-105520000D01*
X136420000Y-101480000D02*
X135795000Y-101480000D01*
X136420000Y-101480000D02*
X136420000Y-105520000D01*
X136420000Y-105520000D02*
X135795000Y-105520000D01*
%TO.C,D7*%
X150380000Y-108380000D02*
X150380000Y-112620000D01*
X150380000Y-112620000D02*
X152620000Y-112620000D01*
X151500000Y-107730000D02*
X151500000Y-108380000D01*
X151500000Y-113270000D02*
X151500000Y-112620000D01*
X152620000Y-108380000D02*
X150380000Y-108380000D01*
X152620000Y-108980000D02*
X150380000Y-108980000D01*
X152620000Y-109100000D02*
X150380000Y-109100000D01*
X152620000Y-109220000D02*
X150380000Y-109220000D01*
X152620000Y-112620000D02*
X152620000Y-108380000D01*
%TO.C,RV4*%
X178979000Y-35880000D02*
X189020000Y-35880000D01*
X178979000Y-39816000D02*
X178979000Y-35880000D01*
X178979000Y-48120000D02*
X178979000Y-44183000D01*
X178979000Y-48120000D02*
X180300000Y-48120000D01*
X182750000Y-48120000D02*
X183130000Y-48120000D01*
X184871000Y-48120000D02*
X185630000Y-48120000D01*
X187370000Y-48120000D02*
X189020000Y-48120000D01*
X189020000Y-39816000D02*
X189020000Y-35880000D01*
X189020000Y-48120000D02*
X189020000Y-44183000D01*
%TO.C,D2*%
X116880000Y-108190000D02*
X116880000Y-112430000D01*
X116880000Y-112430000D02*
X119120000Y-112430000D01*
X118000000Y-107540000D02*
X118000000Y-108190000D01*
X118000000Y-113080000D02*
X118000000Y-112430000D01*
X119120000Y-108190000D02*
X116880000Y-108190000D01*
X119120000Y-108790000D02*
X116880000Y-108790000D01*
X119120000Y-108910000D02*
X116880000Y-108910000D01*
X119120000Y-109030000D02*
X116880000Y-109030000D01*
X119120000Y-112430000D02*
X119120000Y-108190000D01*
%TO.C,J1*%
X108000000Y-116800000D02*
X111700000Y-116800000D01*
X108000000Y-127300000D02*
X108000000Y-116800000D01*
X108000000Y-127300000D02*
X111780000Y-127300000D01*
X113220000Y-127300000D02*
X117000000Y-127300000D01*
X113300000Y-116800000D02*
X117000000Y-116800000D01*
X113730000Y-130450000D02*
X112870000Y-130450000D01*
X113730000Y-130450000D02*
X113730000Y-129650000D01*
X117000000Y-127300000D02*
X117000000Y-116800000D01*
X114300000Y-122800000D02*
G75*
G02*
X110700000Y-122800000I-1800000J0D01*
G01*
X110700000Y-122800000D02*
G75*
G02*
X114300000Y-122800000I1800000J0D01*
G01*
%TO.C,J5*%
X175000000Y-116800000D02*
X178700000Y-116800000D01*
X175000000Y-127300000D02*
X175000000Y-116800000D01*
X175000000Y-127300000D02*
X178780000Y-127300000D01*
X180220000Y-127300000D02*
X184000000Y-127300000D01*
X180300000Y-116800000D02*
X184000000Y-116800000D01*
X180730000Y-130450000D02*
X179870000Y-130450000D01*
X180730000Y-130450000D02*
X180730000Y-129650000D01*
X184000000Y-127300000D02*
X184000000Y-116800000D01*
X181300000Y-122800000D02*
G75*
G02*
X177700000Y-122800000I-1800000J0D01*
G01*
X177700000Y-122800000D02*
G75*
G02*
X181300000Y-122800000I1800000J0D01*
G01*
%TO.C,R3*%
X140120000Y-101080000D02*
X143960000Y-101080000D01*
X140120000Y-102920000D02*
X143960000Y-102920000D01*
%TO.C,RV1*%
X104079000Y-35830000D02*
X114120000Y-35830000D01*
X104079000Y-39766000D02*
X104079000Y-35830000D01*
X104079000Y-48070000D02*
X104079000Y-44133000D01*
X104079000Y-48070000D02*
X105400000Y-48070000D01*
X107850000Y-48070000D02*
X108230000Y-48070000D01*
X109971000Y-48070000D02*
X110730000Y-48070000D01*
X112470000Y-48070000D02*
X114120000Y-48070000D01*
X114120000Y-39766000D02*
X114120000Y-35830000D01*
X114120000Y-48070000D02*
X114120000Y-44133000D01*
%TO.C,J3*%
X135500000Y-116800000D02*
X139200000Y-116800000D01*
X135500000Y-127300000D02*
X135500000Y-116800000D01*
X135500000Y-127300000D02*
X139280000Y-127300000D01*
X140720000Y-127300000D02*
X144500000Y-127300000D01*
X140800000Y-116800000D02*
X144500000Y-116800000D01*
X141230000Y-130450000D02*
X140370000Y-130450000D01*
X141230000Y-130450000D02*
X141230000Y-129650000D01*
X144500000Y-127300000D02*
X144500000Y-116800000D01*
X141800000Y-122800000D02*
G75*
G02*
X138200000Y-122800000I-1800000J0D01*
G01*
X138200000Y-122800000D02*
G75*
G02*
X141800000Y-122800000I1800000J0D01*
G01*
%TO.C,R7*%
X108580000Y-73080000D02*
X108580000Y-76920000D01*
X110420000Y-73080000D02*
X110420000Y-76920000D01*
%TO.C,R10*%
X128580000Y-73080000D02*
X128580000Y-76920000D01*
X130420000Y-73080000D02*
X130420000Y-76920000D01*
%TO.C,C1*%
X107580000Y-101480000D02*
X107580000Y-105520000D01*
X108205000Y-101480000D02*
X107580000Y-101480000D01*
X108205000Y-105520000D02*
X107580000Y-105520000D01*
X110420000Y-101480000D02*
X109795000Y-101480000D01*
X110420000Y-101480000D02*
X110420000Y-105520000D01*
X110420000Y-105520000D02*
X109795000Y-105520000D01*
%TO.C,R8*%
X112580000Y-73080000D02*
X112580000Y-76920000D01*
X114420000Y-73080000D02*
X114420000Y-76920000D01*
%TO.C,R6*%
X179920000Y-64080000D02*
X176080000Y-64080000D01*
X179920000Y-65920000D02*
X176080000Y-65920000D01*
%TO.C,PCM5102*%
X171050000Y-77670000D02*
X171050000Y-80330000D01*
X183810000Y-77670000D02*
X171050000Y-77670000D01*
X183810000Y-77670000D02*
X183810000Y-80330000D01*
X183810000Y-80330000D02*
X171050000Y-80330000D01*
X185080000Y-77670000D02*
X186410000Y-77670000D01*
X186410000Y-77670000D02*
X186410000Y-79000000D01*
%TO.C,D4*%
X129880000Y-108190000D02*
X129880000Y-112430000D01*
X129880000Y-112430000D02*
X132120000Y-112430000D01*
X131000000Y-107540000D02*
X131000000Y-108190000D01*
X131000000Y-113080000D02*
X131000000Y-112430000D01*
X132120000Y-108190000D02*
X129880000Y-108190000D01*
X132120000Y-108790000D02*
X129880000Y-108790000D01*
X132120000Y-108910000D02*
X129880000Y-108910000D01*
X132120000Y-109030000D02*
X129880000Y-109030000D01*
X132120000Y-112430000D02*
X132120000Y-108190000D01*
%TO.C,D3*%
X125380000Y-108190000D02*
X125380000Y-112430000D01*
X125380000Y-112430000D02*
X127620000Y-112430000D01*
X126500000Y-107540000D02*
X126500000Y-108190000D01*
X126500000Y-113080000D02*
X126500000Y-112430000D01*
X127620000Y-108190000D02*
X125380000Y-108190000D01*
X127620000Y-108790000D02*
X125380000Y-108790000D01*
X127620000Y-108910000D02*
X125380000Y-108910000D01*
X127620000Y-109030000D02*
X125380000Y-109030000D01*
X127620000Y-112430000D02*
X127620000Y-108190000D01*
%TO.C,Q1*%
X121300000Y-70650000D02*
X117700000Y-70650000D01*
X117175817Y-71377205D02*
G75*
G02*
X117700001Y-70650001I2324183J-1122795D01*
G01*
X119500000Y-75100000D02*
G75*
G02*
X117143600Y-73598807I0J2600000D01*
G01*
X121299999Y-70650001D02*
G75*
G02*
X121824183Y-71377205I-1799999J-1849999D01*
G01*
X121856399Y-73598807D02*
G75*
G02*
X119500000Y-75099999I-2356399J1098807D01*
G01*
%TO.C,C5*%
X113080000Y-87980000D02*
X113080000Y-92020000D01*
X113705000Y-87980000D02*
X113080000Y-87980000D01*
X113705000Y-92020000D02*
X113080000Y-92020000D01*
X115920000Y-87980000D02*
X115295000Y-87980000D01*
X115920000Y-87980000D02*
X115920000Y-92020000D01*
X115920000Y-92020000D02*
X115295000Y-92020000D01*
%TO.C,AudioOut1*%
X184170000Y-102005000D02*
X184170000Y-99405000D01*
X186830000Y-99405000D02*
X184170000Y-99405000D01*
X186830000Y-102005000D02*
X184170000Y-102005000D01*
X186830000Y-102005000D02*
X186830000Y-99405000D01*
X186830000Y-103275000D02*
X186830000Y-104605000D01*
X186830000Y-104605000D02*
X185500000Y-104605000D01*
%TO.C,ADS1115_B1*%
X136670000Y-72170000D02*
X136670000Y-74830000D01*
X159590000Y-72170000D02*
X136670000Y-72170000D01*
X159590000Y-72170000D02*
X159590000Y-74830000D01*
X159590000Y-74830000D02*
X136670000Y-74830000D01*
X160860000Y-72170000D02*
X162190000Y-72170000D01*
X162190000Y-72170000D02*
X162190000Y-73500000D01*
%TO.C,RV2*%
X128979000Y-35830000D02*
X139020000Y-35830000D01*
X128979000Y-39766000D02*
X128979000Y-35830000D01*
X128979000Y-48070000D02*
X128979000Y-44133000D01*
X128979000Y-48070000D02*
X130300000Y-48070000D01*
X132750000Y-48070000D02*
X133130000Y-48070000D01*
X134871000Y-48070000D02*
X135630000Y-48070000D01*
X137370000Y-48070000D02*
X139020000Y-48070000D01*
X139020000Y-39766000D02*
X139020000Y-35830000D01*
X139020000Y-48070000D02*
X139020000Y-44133000D01*
%TD*%
M02*
